<?xml version="1.0" encoding="UTF-8" standalone="no"?>
<!-- Created with Inkscape (http://www.inkscape.org/) -->

<svg
   xmlns:dc="http://purl.org/dc/elements/1.1/"
   xmlns:cc="http://creativecommons.org/ns#"
   xmlns:rdf="http://www.w3.org/1999/02/22-rdf-syntax-ns#"
   xmlns:svg="http://www.w3.org/2000/svg"
   xmlns="http://www.w3.org/2000/svg"
   xmlns:sodipodi="http://sodipodi.sourceforge.net/DTD/sodipodi-0.dtd"
   xmlns:inkscape="http://www.inkscape.org/namespaces/inkscape"
   width="35.792797mm"
   height="32.457378mm"
   viewBox="0 0 35.792797 32.457378"
   version="1.1"
   id="svg1789"
   inkscape:version="0.92.5 (2060ec1f9f, 2020-04-08)"
   sodipodi:docname="logo.svg">
  <defs
     id="defs1783">
    <clipPath
       clipPathUnits="userSpaceOnUse"
       id="clipPath1328">
      <path
         d="m 2868.87,2054.47 c -0.39,-0.42 -0.76,-0.85 -1.16,-1.28 2.49,1.69 4.97,3.29 7.43,4.64 -2.09,-0.94 -4.18,-2.11 -6.27,-3.36"
         id="path1326"
         inkscape:connector-curvature="0" />
    </clipPath>
    <radialGradient
       fx="0"
       fy="0"
       cx="0"
       cy="0"
       r="0.87640399"
       gradientUnits="userSpaceOnUse"
       gradientTransform="matrix(-243.805,800.083,800.083,243.805,3229.28,1457.72)"
       spreadMethod="pad"
       id="radialGradient1338">
      <stop
         style="stop-opacity:1;stop-color:#ffffff"
         offset="0"
         id="stop1330" />
      <stop
         style="stop-opacity:1;stop-color:#6baee3"
         offset="0.61236"
         id="stop1332" />
      <stop
         style="stop-opacity:1;stop-color:#6baee3"
         offset="0.62064511"
         id="stop1334" />
      <stop
         style="stop-opacity:1;stop-color:#b0e6fa"
         offset="1"
         id="stop1336" />
    </radialGradient>
    <clipPath
       clipPathUnits="userSpaceOnUse"
       id="clipPath1304">
      <path
         d="m 3085.64,2158.9 c -22.93,-7.9 -51.11,-20.07 -85.91,-38.89 -31.84,-0.14 -59.18,-9.77 -82.67,-23.37 -0.22,-0.17 -0.46,-0.33 -0.69,-0.5 22.22,12.09 46.91,19.2 74.14,18.79 -23.48,-13.04 -49.79,-29.01 -79.3,-48.51 -12.15,0.58 -24.14,-2.1 -36.07,-8.59 9.43,4.23 19.05,5.37 28.94,3.87 -18.08,-12.09 -37.34,-25.51 -57.83,-40.35 -1,0.46 -2,0.75 -2.99,0.91 -0.94,-1.4 -1.92,-2.8 -2.83,-4.21 0.25,-0.14 0.51,-0.21 0.76,-0.39 -0.61,-0.45 -1.25,-0.92 -1.85,-1.37 -0.57,-0.89 -1.1,-1.79 -1.64,-2.69 1.66,0.94 3.32,1.85 5,2.78 6.13,-5.64 13.14,-20.39 21.97,-43.83 -23.46,-2.58 -39.03,1.43 -39.85,16.92 -0.68,-1.52 -1.32,-3.05 -1.96,-4.57 -0.87,-21.66 17.64,-27.91 46.62,-25.43 2.73,-7.61 5.62,-15.86 8.7,-24.88 13.15,-38.41 26.55,-73.75 40.12,-106.41 -41.39,2.02 -72.32,9.96 -92.93,23.71 5.7,-10.82 12.74,-20.87 20.98,-30.1 20.49,-8.64 47.28,-14.5 81.79,-16.72 6.51,-14.92 13.07,-29.05 19.65,-42.75 7.38,-2.05 14.96,-3.82 22.71,-5.31 -7.77,15.01 -15.5,30.65 -23.21,47.22 44.27,-1.09 99.64,3.09 168.08,13.82 3.36,-5.15 6.74,-10.35 10.18,-15.62 7.07,-10.85 14.41,-22.07 21.89,-33.38 7.64,2.37 15.14,4.95 22.5,7.71 -4.33,6.55 -8.63,13.06 -12.87,19.5 -5.78,8.76 -11.46,17.35 -17.09,25.85 4.86,0.84 9.57,1.6 14.55,2.49 46.21,8.31 90.82,16.23 132.21,21.82 11.87,10.7 22.58,22 32.01,33.72 -5.27,-0.48 -10.62,-1.02 -16.11,-1.63 -38.81,62.39 -84.3,122.68 -136.1,166.8 43.05,11.37 85.67,19.84 125.26,22.19 26.97,-25.36 51.44,-54.73 72.97,-86.44 0.72,5.62 1.09,11.24 1.21,16.87 -17.93,25.4 -37.8,49.16 -59.63,70.15 15.37,0.3 30.17,-0.51 44.31,-2.49 -3.59,7.14 -7.77,13.97 -12.48,20.45 -17.01,2.66 -35.13,3.32 -54.41,2.23 -48.83,40.4 -105.7,67.36 -168.75,72.02 13.46,3.98 25.06,6.51 35.21,8.15 -11.5,0.27 -23.24,-0.03 -35.13,-0.92 -7.03,-1.68 -14.65,-3.75 -23.18,-6.51 -13.4,-0.19 -27.12,-1.51 -41.02,-3.79 -2.05,-0.5 -4.1,-0.99 -6.15,-1.52 13.82,2.17 27.46,3.26 40.89,3.2 z m -78.44,-45.13 c 35.98,-4.52 76.09,-22.19 120.46,-58.34 -37.98,-11.73 -78.79,-25.92 -122.58,-41.61 -1.51,-0.54 -3.04,-1.09 -4.56,-1.63 -26.95,28.33 -52.22,46.76 -76.69,52.44 27.46,16.94 55,33.76 83.37,49.14 z m -130.68,-139.49 c -10.97,24.7 -19.74,39.83 -27.67,45.52 22.28,12.57 44.14,25.83 65.92,39.25 20.95,-7.12 43.24,-25.62 67.65,-53.31 -37.38,-13.24 -76.13,-26.19 -105.9,-31.46 z m 60.11,-146.6 c -10.54,23.76 -21.04,48.96 -31.43,75.86 -8.62,22.28 -16.18,41.39 -22.93,57.44 31.39,4.74 71.73,17.03 112.36,30.35 30.74,-37.45 64.86,-87.96 103.83,-147.41 -64.07,-11.18 -118.01,-16.58 -161.83,-16.24 z m 343.82,48.14 c -41.21,-5.43 -87.81,-13.67 -139.92,-24.06 -6.1,-1.22 -11.99,-2.33 -17.93,-3.44 -39.92,59.93 -75.71,111.41 -108.87,149.32 3.98,1.33 7.95,2.65 11.9,3.97 38.57,12.88 79.45,26.52 120.37,38.08 41.27,-37.43 86.07,-90.8 134.45,-163.87 z m -173.11,282.07 c 59.3,-5.41 114.05,-31.66 162,-70.73 -36.8,-3.56 -77.54,-12.78 -122.52,-25.96 -49.34,37.18 -92.29,54.06 -129.55,57.85 14.7,7.72 29.59,15.15 44.94,21.77 16.84,7.28 31.75,12.79 45.13,17.07"
         id="path1302"
         inkscape:connector-curvature="0" />
    </clipPath>
    <radialGradient
       fx="0"
       fy="0"
       cx="0"
       cy="0"
       r="0.87640399"
       gradientUnits="userSpaceOnUse"
       gradientTransform="matrix(-243.8,800.065,800.065,243.8,3229.18,1457.68)"
       spreadMethod="pad"
       id="radialGradient1318">
      <stop
         style="stop-opacity:1;stop-color:#ffffff"
         offset="0"
         id="stop1306" />
      <stop
         style="stop-opacity:1;stop-color:#bfeaf4"
         offset="0.303371"
         id="stop1308" />
      <stop
         style="stop-opacity:1;stop-color:#6d9520"
         offset="0.57932302"
         id="stop1310" />
      <stop
         style="stop-opacity:1;stop-color:#6d9520"
         offset="0.61236"
         id="stop1312" />
      <stop
         style="stop-opacity:1;stop-color:#6d9520"
         offset="0.62064511"
         id="stop1314" />
      <stop
         style="stop-opacity:1;stop-color:#daefb0"
         offset="1"
         id="stop1316" />
    </radialGradient>
    <clipPath
       clipPathUnits="userSpaceOnUse"
       id="clipPath1284">
      <path
         d="m 2840.43,2018.05 c -0.37,-0.58 -0.73,-1.17 -1.09,-1.76 0.6,0.45 1.24,0.92 1.85,1.37 -0.25,0.18 -0.51,0.25 -0.76,0.39"
         id="path1282"
         inkscape:connector-curvature="0" />
    </clipPath>
    <radialGradient
       fx="0"
       fy="0"
       cx="0"
       cy="0"
       r="0.87640399"
       gradientUnits="userSpaceOnUse"
       gradientTransform="matrix(-243.797,800.056,800.056,243.797,3229.19,1457.68)"
       spreadMethod="pad"
       id="radialGradient1294">
      <stop
         style="stop-opacity:1;stop-color:#ffffff"
         offset="0"
         id="stop1286" />
      <stop
         style="stop-opacity:1;stop-color:#6baee3"
         offset="0.61236"
         id="stop1288" />
      <stop
         style="stop-opacity:1;stop-color:#6baee3"
         offset="0.62064511"
         id="stop1290" />
      <stop
         style="stop-opacity:1;stop-color:#b0e6fa"
         offset="1"
         id="stop1292" />
    </radialGradient>
    <clipPath
       clipPathUnits="userSpaceOnUse"
       id="clipPath1258">
      <path
         d="m 3501.17,1834.88 c -7.69,74.49 -36.25,148.55 -89.08,211.19 13.12,-7.35 24.94,-16.82 35.31,-28.58 2.74,-4.91 5.51,-10.82 10.43,-21.4 7.76,-12.48 14.71,-25.39 20.88,-38.59 -7.71,23.83 -7.95,24.24 -20.37,46.1 l -5.04,7.53 c -2.62,3.8 -5.84,8.11 -9.12,12.41 -3.22,4.35 -6.47,8.68 -9.39,12.28 -13.48,14.39 -28.27,25.52 -44.44,33.79 -21.52,21.66 -46.17,41.7 -74.39,59.43 -24.59,13.22 -50.1,23.43 -76.08,30.74 58.23,-18.98 106.49,-49.57 145.08,-87.64 -29.3,13.6 -62.93,18.25 -101.11,16.09 -48.83,40.4 -105.71,67.36 -168.75,72.02 32.24,9.54 54.29,11.11 69.45,10.62 11.9,-1.47 23.75,-3.47 35.53,-6.1 -5.53,1.83 -13.13,3.41 -18.79,4.73 l -18.67,2.5 -16.17,1.4 c -13.21,0.07 -35.79,0.12 -74.46,-12.43 -21.49,-0.29 -43.65,-3.18 -66.4,-9 20.45,4.82 40.5,6.97 60.12,6.89 -22.92,-7.9 -51.1,-20.07 -85.91,-38.89 -33.35,-0.15 -61.82,-10.65 -86.03,-25.28 22.89,12.99 48.5,20.63 76.82,20.2 -23.48,-13.04 -49.8,-29.01 -79.3,-48.51 -12.15,0.58 -24.14,-2.1 -36.08,-8.59 9.44,4.23 19.05,5.37 28.94,3.87 -18.08,-12.09 -37.33,-25.51 -57.82,-40.35 -2.13,0.98 -4.22,1.3 -6.27,0.83 8.9,10.74 17.84,20.88 26.82,30.45 2.79,1.91 5.56,3.68 8.33,5.2 -2.32,-1.05 -4.63,-2.3 -6.95,-3.71 11.54,12.19 23.13,23.4 34.75,33.6 3.49,2.4 7.06,4.77 10.76,7.01 -3.18,-1.8 -6.26,-3.79 -9.34,-5.79 11.84,10.3 23.7,19.58 35.57,27.75 2.86,1.73 5.74,3.45 8.59,5.09 -1.89,-1 -3.79,-2.02 -5.68,-3.03 0.02,0.02 0.06,0.05 0.09,0.07 -0.05,-0.03 -0.1,-0.07 -0.15,-0.09 -1.11,-0.6 -2.22,-1.16 -3.36,-1.79 l -18.2,-12.02 c -0.66,-0.5 -1.25,-0.96 -1.89,-1.45 1.43,1.02 2.92,2.04 4.41,3.07 3.25,2.1 6.69,4.3 10.31,6.55 -6.3,-4.12 -12.53,-8.37 -18.59,-12.9 -6.47,-5.38 -13.15,-11.15 -20.12,-17.52 -4.63,-3.39 -9.14,-6.94 -13.53,-10.7 1.82,1.76 3.47,3.51 5.39,5.29 -2.82,-2.53 -5.52,-5.08 -8.19,-7.65 -3.53,-3.12 -6.97,-6.36 -10.33,-9.69 1.84,1.71 3.79,3.41 5.7,5.12 -6.08,-6.15 -11.99,-12.71 -18.09,-20.12 -2.12,-1.94 -4.23,-4.06 -6.34,-6.33 2.92,3.56 6.46,7.76 11.05,13.17 -4.87,-5.41 -8.34,-9.49 -11.74,-13.91 -0.85,-0.92 -1.7,-1.74 -2.55,-2.72 0.63,0.67 1.27,1.24 1.9,1.88 -0.28,-0.35 -0.55,-0.7 -0.83,-1.07 0.33,0.42 0.72,0.89 1.08,1.33 1.92,1.96 3.84,3.86 5.76,5.61 -4.24,-5.2 -8.59,-10.8 -13.23,-17.04 4.64,5.99 9.6,12.16 14.81,18.4 2.1,1.86 4.2,3.62 6.31,5.23 -7.37,-8.18 -15.07,-17.28 -23.2,-27.54 -0.34,-0.1 -0.69,-0.22 -1.04,-0.37 1.04,1.43 2.11,2.91 3.12,4.28 -1.13,-1.47 -2.24,-2.91 -3.35,-4.37 -0.18,-0.08 -0.38,-0.1 -0.55,-0.2 4.11,6.08 7.32,10.71 10.29,14.67 -4.33,-5.36 -7.31,-9.46 -11.01,-15.08 -0.1,-0.06 -0.2,-0.17 -0.32,-0.23 2.8,4.33 5.66,8.59 8.32,12.26 0.65,0.74 1.29,1.49 1.94,2.24 -0.41,-0.45 -0.83,-0.81 -1.25,-1.26 l -1.02,-1.28 -0.7,-0.89 c -2.31,-3.34 -4.97,-7.28 -7.55,-11.28 -0.79,-0.53 -1.57,-1.03 -2.35,-1.78 l -1.23,-1.69 c -1.17,-2.37 -2.68,-5.58 -3.48,-8.11 1.12,2.59 2.54,5.85 4.02,8.5 0.62,0.51 1.24,0.94 1.87,1.22 -2.14,-3.38 -4.21,-6.73 -5.89,-9.72 1.8,2.99 3.89,6.36 6.05,9.76 0.04,0.02 0.1,0.03 0.16,0.04 -1.81,-2.79 -3.79,-5.93 -6.21,-9.8 2.53,3.78 4.69,6.99 6.66,9.93 0.08,0.02 0.16,0.05 0.23,0.06 -2.34,-3.27 -4.64,-6.6 -6.89,-9.99 2.5,3.55 4.88,6.88 7.22,10.09 0.24,0.04 0.47,0.11 0.73,0.13 -2.64,-3.36 -5.23,-6.61 -7.95,-10.22 2.75,3.49 5.51,6.8 8.28,10.17 1.23,-0.04 2.49,-0.45 3.79,-1.35 -4,-2.92 -7.97,-5.78 -12.07,-8.82 4.57,2.43 9.04,5.03 13.56,7.54 6.15,-5.64 13.16,-20.39 21.99,-43.83 -31.25,-3.43 -48.5,4.8 -35.55,36.29 -17.48,-41.15 2.63,-52.6 40.35,-49.37 2.74,-7.61 5.63,-15.86 8.71,-24.88 13.15,-38.41 26.54,-73.75 40.12,-106.41 -48.38,2.36 -82.6,12.74 -102.58,31.14 -6.83,53.26 -5.76,99.48 2.54,129.53 1.11,2.2 2.23,4.43 3.2,6.28 2.42,4.5 4.93,9.05 7.66,13.71 -0.9,-1.5 -1.78,-3.01 -2.66,-4.52 1.51,2.66 2.48,4.26 2.66,4.52 -3.07,-4.5 -6.07,-9.15 -9,-13.92 0.44,1.35 0.89,2.69 1.38,3.95 2.29,3.12 4.73,6.35 7.62,9.97 -2.93,-3.73 -5.31,-6.8 -7.52,-9.72 0.4,1.02 0.81,2.01 1.23,2.97 1.88,2.45 4.14,5.06 6.29,6.75 -1.95,-1.37 -4.45,-3.51 -5.78,-5.49 l -2.17,-3.51 c -0.53,-1.05 -1.02,-2.21 -1.52,-3.35 -3.34,-4.6 -6.19,-8.96 -9.24,-14.58 2.6,4.59 5.53,9.15 9.02,14.1 -0.85,-1.98 -1.68,-4.05 -2.45,-6.29 -8.17,-13.78 -15.67,-28.53 -22.24,-43.95 1.7,5.23 3.23,9.54 4.38,12.66 4.69,10.45 8.12,17.65 11.29,23.48 -5.05,-8.92 -9.12,-18.13 -14.95,-31.38 -2.04,-5.51 -4.27,-11.94 -6.53,-19.13 -17.64,-46.61 -26.44,-98.11 -19.6,-146.4 2.32,-55.19 16.23,-117.66 53.04,-180.61 2.16,-3.3 4.74,-6.97 7.39,-10.69 4.14,-6 8.48,-12.18 12.41,-17.11 l 10.42,-12.68 c 45.16,-47.98 97.31,-76.39 151.6,-90.99 42.66,-24.87 93.32,-39.27 153.13,-38.11 -44.72,0.41 -84.74,11.72 -120.29,30.93 74.71,-12.61 151.56,-1.72 218.46,18.36 65.29,1.62 123.53,36.23 167.3,79.92 6.23,4.71 11.51,9.16 15.72,13.22 -13.14,-17.73 -27.48,-33.08 -42.11,-46.5 -10.29,-8.96 -22.94,-19.53 -38.77,-30.58 -8.14,-5.55 -15.74,-10.47 -23.26,-14.98 -10.91,-6.45 -22.99,-12.84 -36.52,-18.91 -8.05,-3.59 -16.7,-7.12 -26.45,-10.78 0.61,0.21 1.2,0.38 1.8,0.6 8.63,3.11 20.59,7.97 34.36,14.63 9.06,4.31 17.97,9.03 27.38,14.68 10.49,6.17 21.46,13.36 32.62,21.6 1.75,1.24 3.45,2.43 5.29,3.76 6.48,5.02 9.47,7.39 14.65,11.92 5.64,4.66 8.06,6.92 14.2,12.69 18.45,18 28.24,29.64 37.3,42.35 2.81,2.76 5.2,5.36 6.99,7.71 l 0.22,0.3 c 0.68,0.96 1.64,2.23 2.32,3.2 1.57,2.43 3.01,6.03 3.95,8.75 -1.23,-3.23 -3.36,-6.99 -5.31,-10.24 -1.39,-1.5 -2.89,-3.04 -4.59,-4.62 3.14,4.6 6.32,9.43 9.9,14.86 -3.36,-5.38 -6.93,-10.43 -10.51,-15.45 -2.64,-2.43 -5.66,-4.96 -8.98,-7.55 6.97,7.49 13.53,15.17 19.49,23 -6.04,-7.82 -12.6,-15.51 -19.51,-23.03 -33.11,-25.8 -98.85,-58.31 -177.03,-79.65 -55.98,3.48 -117.68,32.7 -180.56,103.38 54.36,0 117.33,5.79 189.95,18.61 59.9,-57.95 124.26,-83.02 187.15,-19.31 -53.65,-52.46 -109.75,-29.38 -163.65,23.64 0.66,0.13 1.32,0.24 2.01,0.37 55.47,10.72 95.53,18.45 123.71,22.54 17.4,-29.57 28.4,-43.68 37.93,-46.55 -5.74,6.08 -12.13,17.34 -27.25,47.99 18.87,2.33 31.23,2.53 38.56,0.33 -2.11,-17.38 -5.84,-33.61 -11.31,-48.32 3.85,9.43 8.65,22.22 11.01,32.13 1.16,4.91 2.13,10 2.99,15.17 2.64,-1.26 4.4,-2.98 5.3,-5.21 -5.61,-14.41 -11.98,-28.5 -19.3,-42.09 7.42,12.96 13.96,26.5 19.82,40.41 0.43,-2.02 0.35,-4.4 -0.19,-7.12 -5.92,-11.31 -12.42,-22.43 -19.63,-33.29 7.4,11.32 13.75,21.82 19.22,31.6 -0.61,-2.45 -1.51,-5.13 -2.72,-8.11 -1.58,-2.81 -2.81,-4.98 -3.9,-6.84 2.73,4.05 4.57,7.55 8,14.31 0.77,2.22 1.18,4.17 1.64,6.16 20.63,37.96 27.91,64.36 33.13,83.26 l 3.61,16.77 1.96,11.26 c 4.47,38.43 0.33,67.52 -12.33,88.83 z m -642.99,211.61 c 6.27,7.43 13.19,14.99 20.88,22.66 4.46,3.84 9.16,7.6 14.01,11.3 -9.09,-8.42 -18.67,-17.93 -28.95,-29.26 -1.99,-1.43 -3.96,-2.99 -5.94,-4.7 z m 439.79,-580.25 c 3.1,1.36 6.13,2.78 9.18,4.23 -2.99,-1.43 -6.06,-2.83 -9.18,-4.23 z m 124.14,97.17 c -34.67,-33.56 -79.38,-60.54 -130.2,-67.24 56.12,20.59 102.41,46.41 130.2,67.24 z m -15.29,485.38 c 49.74,-58.58 79.33,-131.11 88.98,-205.97 -14,18.16 -35.64,29.54 -64.86,35.38 -28.23,70.18 -70.73,138.13 -124.51,189.84 37.44,0.74 71.68,-4.7 100.39,-19.25 z m -114.96,18.67 c 54.06,-50.81 98.08,-117.7 128.34,-187.39 -31.37,4.58 -70.57,3.62 -117.5,-1.6 -38.79,62.39 -84.28,122.68 -136.1,166.8 43.05,11.37 85.67,19.84 125.26,22.19 z m -11.33,-191.68 c -41.23,-5.43 -87.82,-13.67 -139.92,-24.06 -6.1,-1.22 -12,-2.33 -17.93,-3.44 -39.93,59.93 -75.72,111.41 -108.88,149.33 3.97,1.32 7.95,2.64 11.89,3.96 38.59,12.88 79.47,26.52 120.38,38.08 41.27,-37.43 86.08,-90.8 134.46,-163.87 z m -218.24,265.01 c 16.83,7.27 31.75,12.78 45.12,17.06 59.29,-5.4 114.04,-31.65 161.98,-70.72 -36.77,-3.57 -77.53,-12.79 -122.5,-25.97 -49.33,37.18 -92.28,54.06 -129.55,57.86 14.71,7.71 29.59,15.14 44.95,21.77 z m -55.02,-27.06 c 35.98,-4.52 76.09,-22.19 120.46,-58.34 -37.98,-11.73 -78.8,-25.92 -122.57,-41.6 -1.52,-0.55 -3.05,-1.09 -4.57,-1.64 -26.94,28.33 -52.21,46.76 -76.68,52.44 27.46,16.95 54.98,33.77 83.36,49.14 z M 2876.6,1974.24 c -10.97,24.7 -19.74,39.83 -27.67,45.53 22.27,12.56 44.14,25.82 65.91,39.25 20.96,-7.13 43.25,-25.63 67.66,-53.32 -37.38,-13.24 -76.14,-26.19 -105.9,-31.46 z m 28.67,-70.74 c -8.62,22.29 -16.17,41.39 -22.93,57.45 31.39,4.73 71.74,17.02 112.37,30.34 30.73,-37.45 64.86,-87.96 103.81,-147.41 -64.05,-11.17 -117.99,-16.58 -161.82,-16.24 -10.55,23.76 -21.04,48.96 -31.43,75.86 z m 22.94,-98.47 c 32.81,-75.19 66.63,-134.71 100.68,-180.91 -66.78,3.2 -117.35,15.18 -155.16,33.08 -27.43,59.47 -45.45,123.13 -54.78,180.51 21.44,-17.48 56.44,-29.28 109.26,-32.68 z m -113.87,175.61 c -7.13,-26.48 -10.12,-65.67 -7.54,-111.2 -17.56,24.59 -15.96,59.96 5.1,106.17 0.85,1.81 1.62,3.35 2.44,5.03 z m -36.25,-105.12 c 5.27,26.08 13.28,50.56 21.41,71.24 -12.84,-37.81 -13.29,-72.97 8.9,-98.94 5.08,-55.4 18.1,-118.01 41.23,-177.43 -55.36,35.23 -75.25,85.99 -77.44,137.54 0.32,24.6 2.67,47.38 5.9,67.59 z m 61.54,-294.06 c -42.1,60.05 -60.16,123.09 -65.57,180.34 11.45,-44.5 37.91,-84.91 85.14,-114.44 27.43,-62.08 66.65,-119 120.34,-158.31 -52.59,16.2 -101.06,45.36 -139.91,92.41 z m 381.23,-95.11 c -66.76,-14.49 -139.84,-19.66 -208.2,-5.71 -53.45,36.43 -95.56,91.27 -127.13,152.38 41.14,-19.25 94.72,-31.57 163.06,-34.14 58.56,-70.7 117.31,-103.92 172.27,-112.53 z m -166.3,136.94 c -35.79,45.41 -71.8,104.8 -107.2,180.89 44.28,-1.09 99.65,3.11 168.07,13.83 3.36,-5.15 6.76,-10.35 10.2,-15.61 35.39,-54.3 75.99,-116.55 119.41,-164.37 -73.93,-10.92 -137,-15.47 -190.48,-14.74 z m 261.75,26.62 c -16.11,-2.99 -31.68,-5.65 -46.92,-8.11 -39.55,44.22 -77.59,101.85 -112.26,154.41 -5.78,8.77 -11.45,17.36 -17.07,25.86 4.84,0.84 9.57,1.6 14.53,2.49 50.55,9.09 99.36,17.85 143.89,23.44 22.71,-35.95 46.15,-76.06 70.41,-121.04 13.38,-24.81 24.53,-45.36 34.06,-62.4 -24.1,-3.04 -53.32,-8.46 -86.64,-14.65 z m 149,12.36 c -10.17,5.19 -27.2,5.86 -49.92,3.67 -2.11,4.32 -4.3,8.82 -6.66,13.71 -22.89,47.36 -52.73,108.95 -89.08,170.81 43.32,4.51 81.78,5.26 112.77,-0.6 24.4,-65.4 36.37,-131.5 32.89,-187.59 z m 3.32,-2.09 c 5.82,54.9 -3.81,121.27 -26.36,187.49 25.07,-6.29 44.41,-17.73 56.34,-36.1 3.01,-55.17 -4.68,-110.69 -23.1,-162.08 -1,4.48 -3.28,8.03 -6.88,10.69 z m 40.8,66.79 c -6.95,-30 -15.86,-53.11 -33.84,-89.33 0.62,3.45 0.7,6.47 0.43,9.23 19.08,48.73 28.61,102.27 27.24,156.42 9.03,-18.8 11.51,-43.79 6.17,-76.32 z m -622.16,350.25 c 9.27,8.3 19.59,16.58 32.13,26.21 -12.22,-8.78 -22.78,-17.54 -32.13,-26.21 z m 577.89,-462.93 c -2.62,-3.9 -6.08,-8.31 -12.6,-16.65 7.15,8.34 9.32,11.09 12.6,16.65 z m -226.82,-169.41 22.44,6.64 c 3.73,1.33 7.25,2.64 10.7,3.93 -15.27,-5.42 -30.09,-9.65 -44.53,-12.87 3.79,0.74 7.54,1.44 11.39,2.3 z m -276.89,683.84 c -4.03,-1.99 -8.41,-4.42 -12.86,-6.98 26.31,13.9 52.02,23.84 77,30.23 -21.02,-4.95 -42.43,-12.53 -64.14,-23.25 z m -92.7,-68.84 c -0.55,-0.52 -1.11,-1.03 -1.64,-1.54 l -4,-4.23 c -0.77,-0.9 -1.32,-1.56 -2.04,-2.39 1.23,1.36 2.7,2.96 4.11,4.51 1.19,1.22 2.37,2.45 3.57,3.65 z m 358.2,-617.3 c -24.45,-4.86 -47.61,-7.37 -69.55,-7.81 22.03,-0.19 45.24,2.36 69.55,7.81"
         id="path1256"
         inkscape:connector-curvature="0" />
    </clipPath>
    <radialGradient
       fx="0"
       fy="0"
       cx="0"
       cy="0"
       r="0.98876399"
       gradientUnits="userSpaceOnUse"
       gradientTransform="matrix(-644.682,804.824,804.824,644.682,3296.86,1469.21)"
       spreadMethod="pad"
       id="radialGradient1274">
      <stop
         style="stop-opacity:1;stop-color:#ffffff"
         offset="0"
         id="stop1260" />
      <stop
         style="stop-opacity:1;stop-color:#bfdf14"
         offset="0.117978"
         id="stop1262" />
      <stop
         style="stop-opacity:1;stop-color:#0f723a"
         offset="0.52943839"
         id="stop1264" />
      <stop
         style="stop-opacity:1;stop-color:#0f723a"
         offset="0.61236"
         id="stop1266" />
      <stop
         style="stop-opacity:1;stop-color:#367e2c"
         offset="0.792135"
         id="stop1268" />
      <stop
         style="stop-opacity:1;stop-color:#7fcc28"
         offset="0.86126572"
         id="stop1270" />
      <stop
         style="stop-opacity:1;stop-color:#7fcc28"
         offset="1"
         id="stop1272" />
    </radialGradient>
    <clipPath
       clipPathUnits="userSpaceOnUse"
       id="clipPath1234">
      <path
         d="m 3360.05,2043.08 c 32.2,-105.7 -63.64,-228.55 -214.1,-274.4 -150.46,-45.84 -298.55,2.68 -330.75,108.37 -32.2,105.72 63.65,228.56 214.1,274.41 150.47,45.85 298.54,-2.67 330.75,-108.38"
         id="path1232"
         inkscape:connector-curvature="0" />
    </clipPath>
    <radialGradient
       fx="0"
       fy="0"
       cx="0"
       cy="0"
       r="0.87640399"
       gradientUnits="userSpaceOnUse"
       gradientTransform="matrix(-243.794,800.045,800.045,243.794,3229.34,1457.89)"
       spreadMethod="pad"
       id="radialGradient1248">
      <stop
         style="stop-opacity:1;stop-color:#ffffff"
         offset="0"
         id="stop1236" />
      <stop
         style="stop-opacity:1;stop-color:#bfdf14"
         offset="0.303371"
         id="stop1238" />
      <stop
         style="stop-opacity:1;stop-color:#1f8236"
         offset="0.57932302"
         id="stop1240" />
      <stop
         style="stop-opacity:1;stop-color:#1f8236"
         offset="0.61236"
         id="stop1242" />
      <stop
         style="stop-opacity:1;stop-color:#1f8236"
         offset="0.62064511"
         id="stop1244" />
      <stop
         style="stop-opacity:1;stop-color:#b0da19"
         offset="1"
         id="stop1246" />
    </radialGradient>
    <clipPath
       clipPathUnits="userSpaceOnUse"
       id="clipPath1208">
      <path
         d="m 3245.63,2152.39 c -72.54,18.63 -151.91,17.54 -228.99,-10.27 11.45,9.76 24.43,17.56 39.05,23.2 5.56,0.87 12.06,1.42 23.7,2.36 14.4,2.95 28.91,4.99 43.44,6.2 -25.03,1.03 -25.49,0.96 -50.31,-3.12 l -8.81,-2.1 c -4.47,-1.14 -9.64,-2.68 -14.8,-4.25 -5.2,-1.52 -10.39,-3.05 -14.78,-4.56 -18.17,-7.64 -33.75,-17.65 -47.1,-29.94 -27.79,-12.67 -55.15,-28.84 -81.56,-49.15 -20.93,-18.47 -39.36,-38.85 -55.24,-60.69 38.01,48.02 83.46,82.68 132.54,105.66 -22.92,-22.75 -38.95,-52.69 -50.17,-89.25 -54.84,-31.77 -99.87,-75.76 -126.1,-133.28 2.24,33.57 8.41,54.78 14.14,68.84 5.5,10.64 11.49,21.06 18.05,31.19 -3.64,-4.54 -7.75,-11.12 -10.96,-15.97 l -8.82,-16.65 -6.94,-14.67 c -4.63,-12.37 -12.53,-33.53 -14.16,-74.15 -7.2,-20.26 -12.18,-42.04 -14.61,-65.4 2.58,20.84 7.52,40.41 14.4,58.78 -0.54,-24.24 1.09,-54.9 6.66,-94.07 -11.44,-31.33 -11.47,-61.67 -6.13,-89.46 -4.24,25.98 -2.52,52.65 7.7,79.05 4.09,-26.54 9.92,-56.76 17.98,-91.2 -4.77,-11.19 -6.41,-23.36 -4.45,-36.81 -0.71,10.31 1.56,19.73 6.4,28.48 5.06,-21.15 10.96,-43.86 17.78,-68.23 -1.66,-1.66 -2.68,-3.5 -2.95,-5.59 -7,12.07 -13.4,23.98 -19.26,35.72 -0.82,3.27 -1.53,6.49 -1.97,9.62 0.16,-2.54 0.52,-5.15 1.05,-7.8 -7.42,15.04 -13.91,29.79 -19.45,44.23 -1.04,4.12 -2.03,8.28 -2.83,12.53 0.58,-3.6 1.37,-7.18 2.18,-10.76 -5.56,14.67 -10.13,29.02 -13.69,42.98 -0.62,3.29 -1.24,6.58 -1.78,9.83 0.27,-2.13 0.57,-4.26 0.86,-6.39 -0.02,0.04 -0.03,0.08 -0.04,0.11 0.02,-0.05 0.03,-0.11 0.04,-0.16 0.18,-1.26 0.32,-2.5 0.51,-3.77 l 4.96,-21.26 c 0.25,-0.78 0.47,-1.49 0.71,-2.26 -0.47,1.69 -0.9,3.44 -1.35,5.19 -0.84,3.78 -1.71,7.77 -2.56,11.95 1.67,-7.33 3.49,-14.65 5.63,-21.92 2.81,-7.92 5.9,-16.2 9.45,-24.95 1.58,-5.51 3.34,-10.98 5.35,-16.39 -1.02,2.32 -2.09,4.48 -3.09,6.89 1.39,-3.52 2.83,-6.94 4.33,-10.34 1.71,-4.39 3.54,-8.74 5.52,-13.05 -0.98,2.31 -1.9,4.75 -2.85,7.12 3.67,-7.83 7.77,-15.65 12.6,-23.95 1.09,-2.66 2.34,-5.37 3.73,-8.14 -2.31,3.97 -5.03,8.76 -8.51,14.94 3.39,-6.45 6,-11.11 8.97,-15.85 0.57,-1.11 1.04,-2.19 1.67,-3.32 -0.42,0.82 -0.73,1.61 -1.1,2.43 0.23,-0.39 0.46,-0.76 0.7,-1.15 -0.27,0.46 -0.57,0.99 -0.86,1.48 -1.17,2.48 -2.3,4.94 -3.27,7.34 3.41,-5.78 7.16,-11.8 11.4,-18.31 -4.01,6.43 -8.08,13.22 -12.13,20.26 -1.02,2.62 -1.94,5.2 -2.72,7.74 5.12,-9.74 10.99,-20.13 17.79,-31.31 -0.03,-0.37 -0.03,-0.73 -0.01,-1.11 -0.98,1.48 -2,2.99 -2.93,4.42 0.99,-1.57 1.95,-3.12 2.93,-4.67 0.01,-0.2 -0.03,-0.38 0,-0.58 -4.28,5.96 -7.52,10.58 -10.2,14.74 3.54,-5.92 6.35,-10.14 10.33,-15.55 0.02,-0.12 0.08,-0.26 0.11,-0.39 -3.1,4.13 -6.1,8.29 -8.62,12.06 -0.47,0.86 -0.94,1.73 -1.42,2.6 0.28,-0.55 0.46,-1.07 0.75,-1.62 l 0.84,-1.39 0.59,-0.97 c 2.32,-3.33 5.1,-7.19 7.97,-11 0.21,-0.92 0.42,-1.83 0.85,-2.82 l 1.16,-1.73 c 1.82,-1.93 4.3,-4.45 6.39,-6.08 -2.03,1.95 -4.61,4.4 -6.57,6.71 -0.27,0.76 -0.45,1.49 -0.5,2.18 2.42,-3.18 4.85,-6.28 7.07,-8.89 -2.17,2.71 -4.61,5.85 -7.05,9.05 0,0.06 0.02,0.11 0.02,0.16 1.99,-2.65 4.25,-5.6 7.03,-9.21 -2.66,3.68 -4.93,6.81 -7,9.69 0,0.08 0,0.16 0.02,0.23 2.26,-3.33 4.58,-6.65 6.98,-9.92 -2.46,3.57 -4.75,6.96 -6.96,10.26 0.05,0.25 0.06,0.5 0.14,0.73 2.23,-3.63 4.38,-7.19 6.82,-10.99 -2.31,3.78 -4.46,7.52 -6.66,11.28 0.47,1.15 1.29,2.19 2.59,3.09 1.34,-4.77 2.65,-9.47 4.07,-14.37 -0.69,5.13 -1.59,10.22 -2.37,15.33 7.43,3.8 23.69,5.26 48.74,5.41 -7.62,-30.49 -21.33,-43.82 -46.37,-20.74 32.54,-30.67 50.25,-15.8 60.31,20.71 8.08,-0.08 16.82,-0.23 26.35,-0.47 40.58,-1.01 78.38,-0.7 113.73,0.7 -19.01,-44.55 -40.62,-73.05 -64.81,-85.4 -52.32,12.09 -95.29,29.12 -120.6,47.33 -1.67,1.8 -3.38,3.63 -4.78,5.19 -3.37,3.81 -6.77,7.76 -10.2,11.94 1.11,-1.37 2.22,-2.72 3.32,-4.07 -1.98,2.34 -3.14,3.8 -3.32,4.07 3.15,-4.46 6.48,-8.88 9.93,-13.29 -1.11,0.9 -2.2,1.79 -3.23,2.68 -2.13,3.22 -4.31,6.64 -6.7,10.61 2.48,-4.05 4.53,-7.35 6.52,-10.43 -0.82,0.73 -1.61,1.45 -2.38,2.18 -1.64,2.61 -3.29,5.65 -4.14,8.25 0.62,-2.31 1.74,-5.4 3.14,-7.33 l 2.55,-3.26 c 0.8,-0.85 1.71,-1.72 2.61,-2.58 3.15,-4.73 6.25,-8.92 10.47,-13.73 -3.4,4.03 -6.66,8.35 -10.09,13.35 1.55,-1.48 3.21,-2.97 5.05,-4.48 10.08,-12.45 21.31,-24.6 33.49,-36.1 -4.31,3.4 -7.83,6.33 -10.35,8.49 -8.17,8.02 -13.73,13.75 -18.1,18.74 6.62,-7.84 13.83,-14.85 24.23,-24.91 4.46,-3.83 9.72,-8.14 15.69,-12.75 37.6,-32.74 82.83,-58.86 130.49,-69.18 52.57,-16.99 115.99,-25.63 187.81,-12.95 3.83,0.88 8.17,2.03 12.58,3.22 7.07,1.81 14.36,3.73 20.35,5.71 l 15.51,5.37 c 60.67,25.7 105.42,64.75 137.95,110.6 38.12,31.39 69.2,73.89 88.87,130.4 -15.9,-41.82 -40.4,-75.42 -70.75,-102.08 37.75,65.69 54.21,141.54 58.59,211.25 21.14,61.8 8.89,128.43 -16.9,184.64 -2.26,7.47 -4.59,13.97 -6.94,19.32 12.07,-18.47 21.5,-37.24 28.99,-55.62 4.84,-12.77 10.36,-28.29 15.24,-46.97 2.38,-9.57 4.35,-18.39 5.97,-27.01 2.27,-12.48 4.07,-26.02 5.07,-40.82 0.57,-8.79 0.88,-18.13 0.93,-28.54 0.01,0.63 0.05,1.24 0.05,1.88 0.09,9.19 -0.32,22.08 -1.8,37.3 -0.89,10.01 -2.22,19.99 -4.26,30.79 -2.15,11.98 -5.08,24.76 -8.94,38.08 -0.55,2.09 -1.08,4.08 -1.69,6.27 -2.45,7.81 -3.65,11.45 -6.09,17.87 -2.42,6.91 -3.69,9.97 -6.97,17.72 -10.49,23.56 -18.01,36.78 -26.78,49.68 -1.61,3.6 -3.22,6.74 -4.8,9.24 l -0.22,0.31 c -0.65,0.97 -1.51,2.31 -2.18,3.28 -1.74,2.31 -4.61,4.92 -6.84,6.74 2.6,-2.27 5.38,-5.58 7.76,-8.53 0.93,-1.82 1.85,-3.78 2.75,-5.91 -3.22,4.54 -6.66,9.21 -10.51,14.44 3.89,-5.02 7.38,-10.12 10.84,-15.21 1.37,-3.33 2.7,-7.04 3.96,-11.05 -4.6,9.14 -9.53,17.96 -14.8,26.26 5.23,-8.37 10.18,-17.2 14.82,-26.29 12.72,-40 20.39,-112.94 13.27,-193.67 -22.68,-51.29 -71.49,-99.02 -159.61,-133.46 18.86,50.99 35.29,112.05 48.46,184.6 75.13,36.07 120.99,87.73 83.06,168.82 30.59,-68.52 -10.53,-113.12 -78.96,-145.29 0.11,0.68 0.23,1.34 0.35,2.03 9.2,55.74 15.84,95.99 21.79,123.83 33.77,6.06 50.82,11.49 56.82,19.43 -7.7,-3.27 -20.49,-5.36 -54.46,-8.9 4.35,18.5 8.45,30.16 13.07,36.28 15.57,-8.01 29.48,-17.14 41.39,-27.38 -7.52,6.88 -17.84,15.83 -26.31,21.47 -4.21,2.8 -8.63,5.48 -13.18,8.08 2.09,2.03 4.3,3.09 6.7,3.16 11.58,-10.26 22.59,-21.12 32.79,-32.71 -9.59,11.45 -20.01,22.3 -31.03,32.62 2.05,-0.3 4.25,-1.21 6.62,-2.66 8.55,-9.47 16.72,-19.43 24.41,-29.96 -8.05,10.87 -15.7,20.46 -22.97,29 2.09,-1.42 4.29,-3.2 6.66,-5.36 2.09,-2.47 3.7,-4.38 5.07,-6.04 -2.86,3.95 -5.5,6.9 -10.65,12.47 -1.82,1.48 -3.5,2.55 -5.2,3.68 -28.46,32.5 -50.68,48.51 -66.6,59.95 l -14.47,9.22 -9.88,5.74 c -34.5,17.51 -63.21,23.74 -87.58,19.26 z m -421.59,-529.61 c -4.8,8.47 -9.49,17.58 -14.02,27.45 -2.05,5.51 -3.95,11.23 -5.72,17.05 4.74,-11.44 10.33,-23.72 17.39,-37.3 0.65,-2.35 1.42,-4.76 2.35,-7.2 z m 696.8,211.1 c -0.2,3.39 -0.49,6.73 -0.78,10.08 0.29,-3.28 0.55,-6.65 0.78,-10.08 z m -48.06,150.16 c 19.45,-44.16 29.23,-95.45 17.88,-145.44 0.16,59.76 -7.98,112.14 -17.88,145.44 z m -460.53,154.09 c 72.21,26.31 150.5,28.91 224.06,11.98 -21.9,-6.83 -40.08,-23.18 -55.68,-48.56 -75.63,-2.11 -154.09,-18.39 -221.25,-50.91 12.29,35.38 29.27,65.61 52.87,87.49 z m -57.39,-101.34 c 66.41,33.07 144.42,51.15 220.28,55.34 -15.18,-27.83 -27.87,-64.93 -39.27,-110.76 -71.98,-14.73 -144.31,-36.47 -203.66,-69.75 4.27,44.32 11.11,87.23 22.65,125.17 z m 175.84,-77.14 c -9.22,-40.55 -17.65,-87.1 -25.99,-139.59 -0.98,-6.13 -2,-12.05 -2.99,-17.99 -70.07,-16.66 -130.77,-32.36 -177.84,-50.3 0.14,4.19 0.28,8.37 0.41,12.53 1.32,40.65 2.7,83.72 6.06,126.12 49.42,25.71 115.02,49.21 200.35,69.23 z m -324.27,-112.72 c -0.98,18.31 -0.98,34.21 -0.36,48.24 25.65,53.73 69.26,95.97 122.56,127.38 -9.43,-35.73 -14.92,-77.16 -18.16,-123.91 -51.99,-33.36 -82.74,-67.79 -99.22,-101.42 -2.14,16.47 -3.95,33.01 -4.82,49.71 z m 6.28,-60.99 c 16.72,32.17 47.21,63.67 96.52,92.74 -2.18,-39.7 -3.04,-82.9 -3.53,-129.4 -0.02,-1.61 -0.03,-3.23 -0.04,-4.85 -35.93,-15.44 -61.98,-32.75 -75.8,-53.73 -6.36,31.64 -12.57,63.29 -17.15,95.24 z m 85.47,-170.96 c -26.97,-1.71 -44.21,-4.7 -52.3,-10.16 -4.04,25.26 -8.89,50.36 -13.93,75.45 13.95,17.18 39.03,31.66 73.48,44.95 -0.57,-39.66 -1.86,-80.5 -7.25,-110.24 z m 76.3,2.34 c -23.89,-0.34 -44.43,-0.8 -61.84,-1.57 6.46,31.1 8.93,73.19 10.54,115.92 45.78,15.83 105,30.3 174.27,46.22 -11.75,-63.96 -25.4,-116.43 -40.91,-157.41 -25.95,-1.64 -53.23,-2.74 -82.06,-3.16 z m 100.31,-12.65 c 81.91,4.68 149.46,15.75 204.6,31.65 -26.18,-61.52 -54.96,-104.8 -84.86,-134.05 -65.29,-5.08 -131.25,0.11 -188.3,11.27 23.83,14.05 47.04,42.78 68.56,91.13 z m -204.22,-45.86 c 22.36,-15.88 58.08,-32.28 101.68,-45.66 -29.16,-7.94 -61.77,5.85 -97.8,41.64 -1.4,1.42 -2.57,2.67 -3.88,4.02 z m 86.01,-70.47 c -22.62,14 -42.81,30 -59.37,44.8 31,-25.17 63.81,-37.79 95.88,-25.98 53.71,-14.46 116.95,-23.98 180.71,-22.9 -52.26,-39.71 -106.77,-40.74 -155.88,-24.91 -22.96,8.83 -43.51,18.95 -61.34,28.99 z M 3253.73,1444 c -70.93,-18.63 -136.32,-13.69 -191.89,1.1 45.7,-4.71 92.8,6.09 136.87,40.13 67.74,4.18 134.74,21.22 190.24,57.93 -33.44,-43.7 -77.62,-79.04 -135.22,-99.16 z m 221.48,324.55 c -9.57,-67.63 -30.07,-137.98 -66.88,-197.25 -52.72,-37.48 -118.76,-57.94 -187.03,-66.35 32.33,31.91 62.49,77.88 88.6,141.09 86.63,30.37 138.17,73.96 165.31,122.51 z M 3289.08,1660.1 c -55,-17.8 -123.2,-30.97 -206.85,-37.76 16.38,41.14 31.66,94.52 45.35,162.43 5.99,1.36 12.06,2.74 18.18,4.13 63.21,14.36 135.69,30.84 195.59,54.97 -15.4,-73.14 -33.03,-133.87 -52.27,-183.77 z m 65.86,254.73 c -2.78,-16.16 -5.68,-31.68 -8.67,-46.82 -55.2,-21.74 -122.44,-37.42 -183.77,-51.7 -10.23,-2.38 -20.25,-4.72 -30.18,-7.04 0.9,4.84 1.82,9.52 2.71,14.5 9.01,50.55 17.73,99.37 27.95,143.08 41.6,8.82 87.34,16.88 137.95,24.03 27.91,3.93 51.05,7.26 70.34,10.29 -5.51,-23.66 -10.57,-52.94 -16.33,-86.34 z m 40.12,144.03 c -8.4,-7.74 -14.93,-23.48 -20.76,-45.56 -4.79,-0.46 -9.77,-0.96 -15.18,-1.48 -52.36,-5.04 -120.47,-11.64 -191.1,-24.27 10.8,42.2 23.44,78.52 39.69,105.55 69.81,0.2 135.95,-11.51 187.35,-34.24 z m 3.11,2.39 c -49.48,24.5 -115.04,38.51 -184.99,40.33 14.61,21.34 32.04,35.51 53.42,40.33 52.78,-16.33 102.17,-42.81 143.99,-77.92 -4.55,0.62 -8.68,-0.3 -12.42,-2.74 z m -48.48,61.43 c 25.72,-16.93 44.3,-33.29 72.03,-62.73 -3.01,1.78 -5.82,2.9 -8.5,3.6 -39.08,34.81 -85.99,62.32 -137.24,79.84 20.76,1.94 45.06,-4.42 73.71,-20.71 z m -544.38,-461.95 c -4.57,11.57 -8.76,24.12 -13.43,39.23 3.99,-14.51 8.54,-27.46 13.43,-39.23 z m 634.7,381.34 c 2.74,-3.82 5.67,-8.59 11.24,-17.6 -5.33,9.6 -7.17,12.59 -11.24,17.6 z m 80.17,-271.52 1.56,23.36 c 0.04,3.95 0.04,7.71 0.03,11.4 -0.22,-16.21 -1.4,-31.58 -3.37,-46.23 0.6,3.81 1.25,7.57 1.78,11.47 z m -737.43,-22.39 c 0.46,-4.46 1.21,-9.41 2.09,-14.47 -3.91,29.5 -4.31,57.05 -1.64,82.7 -2.65,-21.43 -2.97,-44.13 -0.45,-68.23 z m 32.41,-110.82 c 0.28,-0.69 0.56,-1.39 0.86,-2.07 l 2.57,-5.23 c 0.58,-1.02 1,-1.77 1.54,-2.73 -0.84,1.62 -1.84,3.55 -2.81,5.42 -0.73,1.54 -1.46,3.07 -2.16,4.61 z m 703.24,121.74 c -3.95,-24.62 -9.62,-47.22 -16.83,-67.94 7.82,20.59 13.49,43.24 16.83,67.94"
         id="path1206"
         inkscape:connector-curvature="0" />
    </clipPath>
    <radialGradient
       fx="0"
       fy="0"
       cx="0"
       cy="0"
       r="0.98876399"
       gradientUnits="userSpaceOnUse"
       gradientTransform="matrix(-978.525,-325.337,-325.337,978.525,3517.65,1833.83)"
       spreadMethod="pad"
       id="radialGradient1224">
      <stop
         style="stop-opacity:1;stop-color:#ffffff"
         offset="0"
         id="stop1210" />
      <stop
         style="stop-opacity:1;stop-color:#bfdf14"
         offset="0.117978"
         id="stop1212" />
      <stop
         style="stop-opacity:1;stop-color:#0f723a"
         offset="0.52943839"
         id="stop1214" />
      <stop
         style="stop-opacity:1;stop-color:#0f723a"
         offset="0.61236"
         id="stop1216" />
      <stop
         style="stop-opacity:1;stop-color:#367e2c"
         offset="0.792135"
         id="stop1218" />
      <stop
         style="stop-opacity:1;stop-color:#7fcc28"
         offset="0.86126572"
         id="stop1220" />
      <stop
         style="stop-opacity:1;stop-color:#7fcc28"
         offset="1"
         id="stop1222" />
    </radialGradient>
    <clipPath
       clipPathUnits="userSpaceOnUse"
       id="clipPath1182">
      <path
         d="m 3507.04,1917.43 c 60.64,-199.03 -51.53,-409.54 -250.57,-470.17 -199.01,-60.65 -409.53,51.52 -470.16,250.54 -60.65,199.04 51.53,409.54 250.55,470.18 199.02,60.65 409.53,-51.52 470.18,-250.55"
         id="path1180"
         inkscape:connector-curvature="0" />
    </clipPath>
    <radialGradient
       fx="0"
       fy="0"
       cx="0"
       cy="0"
       r="0.98876399"
       gradientUnits="userSpaceOnUse"
       gradientTransform="matrix(-222.77,731.054,731.054,222.77,3243.53,1496.05)"
       spreadMethod="pad"
       id="radialGradient1198">
      <stop
         style="stop-opacity:1;stop-color:#ffffff"
         offset="0"
         id="stop1184" />
      <stop
         style="stop-opacity:1;stop-color:#bfdf14"
         offset="0.117978"
         id="stop1186" />
      <stop
         style="stop-opacity:1;stop-color:#0f723a"
         offset="0.52943839"
         id="stop1188" />
      <stop
         style="stop-opacity:1;stop-color:#0f723a"
         offset="0.61236"
         id="stop1190" />
      <stop
         style="stop-opacity:1;stop-color:#367e2c"
         offset="0.792135"
         id="stop1192" />
      <stop
         style="stop-opacity:1;stop-color:#7fcc28"
         offset="0.86126572"
         id="stop1194" />
      <stop
         style="stop-opacity:1;stop-color:#7fcc28"
         offset="1"
         id="stop1196" />
    </radialGradient>
    <clipPath
       clipPathUnits="userSpaceOnUse"
       id="clipPath1166">
      <path
         d="m 3738.19,1386.35 c 0,-55.9 -207.51,-101.19 -463.48,-101.19 -255.96,0 -463.46,45.29 -463.46,101.19 0,55.88 207.5,101.17 463.46,101.17 255.97,0 463.48,-45.29 463.48,-101.17"
         id="path1164"
         inkscape:connector-curvature="0" />
    </clipPath>
    <radialGradient
       fx="-1.3322676e-13"
       fy="2.9487524e-13"
       cx="-1.3322676e-13"
       cy="2.9487524e-13"
       r="0.93258399"
       gradientUnits="userSpaceOnUse"
       gradientTransform="matrix(496.96328,0.01072289,0.0021831,-101.178,3274.73,1386.34)"
       spreadMethod="pad"
       id="radialGradient1172">
      <stop
         style="stop-opacity:1;stop-color:#b5d6a1"
         offset="0"
         id="stop1168" />
      <stop
         id="stop2008"
         offset="0.5293811"
         style="stop-color:#dcebd2;stop-opacity:0.6" />
      <stop
         style="stop-opacity:0;stop-color:#ffffff"
         offset="1"
         id="stop1170" />
    </radialGradient>
  </defs>
  <sodipodi:namedview
     id="base"
     pagecolor="#ffffff"
     bordercolor="#666666"
     borderopacity="1.0"
     inkscape:pageopacity="0.0"
     inkscape:pageshadow="2"
     inkscape:zoom="1.4"
     inkscape:cx="-50.220663"
     inkscape:cy="148.74893"
     inkscape:document-units="mm"
     inkscape:current-layer="g1162"
     showgrid="false"
     inkscape:window-width="1920"
     inkscape:window-height="1043"
     inkscape:window-x="0"
     inkscape:window-y="0"
     inkscape:window-maximized="1"
     fit-margin-top="1"
     fit-margin-left="1"
     fit-margin-right="2.7755576e-17"
     fit-margin-bottom="0" />
  <metadata
     id="metadata1786">
    <rdf:RDF>
      <cc:Work
         rdf:about="">
        <dc:format>image/svg+xml</dc:format>
        <dc:type
           rdf:resource="http://purl.org/dc/dcmitype/StillImage" />
        <dc:title></dc:title>
      </cc:Work>
    </rdf:RDF>
  </metadata>
  <g
     inkscape:label="Layer 1"
     inkscape:groupmode="layer"
     id="layer1"
     style="display:inline;opacity:1"
     transform="translate(-3.0375348,-3.4591039)">
    <g
       transform="matrix(0.03527778,0,0,-0.03527778,-93.044711,81.254074)"
       id="g1162"
       clip-path="url(#clipPath1166)"
       style="opacity:1">
      <path
         d="m 3738.19,1386.35 c 0,-55.9 -207.51,-101.19 -463.48,-101.19 -255.96,0 -463.46,45.29 -463.46,101.19 0,55.88 207.5,101.17 463.46,101.17 255.97,0 463.48,-45.29 463.48,-101.17"
         style="fill:url(#radialGradient1172);fill-opacity:1;fill-rule:nonzero;stroke:none"
         id="path1174"
         inkscape:connector-curvature="0" />
    </g>
    <g
       id="g1176"
       transform="matrix(0.03527778,0,0,-0.03527778,-93.579248,81.521344)">
      <g
         clip-path="url(#clipPath1182)"
         id="g1178">
        <path
           inkscape:connector-curvature="0"
           id="path1200"
           style="fill:url(#radialGradient1198);fill-opacity:1;fill-rule:nonzero;stroke:none"
           d="m 3507.04,1917.43 c 60.64,-199.03 -51.53,-409.54 -250.57,-470.17 -199.01,-60.65 -409.53,51.52 -470.16,250.54 -60.65,199.04 51.53,409.54 250.55,470.18 199.02,60.65 409.53,-51.52 470.18,-250.55" />
      </g>
    </g>
    <g
       id="g1202"
       transform="matrix(0.03527778,0,0,-0.03527778,-93.579248,81.521344)">
      <g
         clip-path="url(#clipPath1208)"
         id="g1204">
        <path
           inkscape:connector-curvature="0"
           id="path1226"
           style="fill:url(#radialGradient1224);fill-opacity:1;fill-rule:nonzero;stroke:none"
           d="m 3245.63,2152.39 c -72.54,18.63 -151.91,17.54 -228.99,-10.27 11.45,9.76 24.43,17.56 39.05,23.2 5.56,0.87 12.06,1.42 23.7,2.36 14.4,2.95 28.91,4.99 43.44,6.2 -25.03,1.03 -25.49,0.96 -50.31,-3.12 l -8.81,-2.1 c -4.47,-1.14 -9.64,-2.68 -14.8,-4.25 -5.2,-1.52 -10.39,-3.05 -14.78,-4.56 -18.17,-7.64 -33.75,-17.65 -47.1,-29.94 -27.79,-12.67 -55.15,-28.84 -81.56,-49.15 -20.93,-18.47 -39.36,-38.85 -55.24,-60.69 38.01,48.02 83.46,82.68 132.54,105.66 -22.92,-22.75 -38.95,-52.69 -50.17,-89.25 -54.84,-31.77 -99.87,-75.76 -126.1,-133.28 2.24,33.57 8.41,54.78 14.14,68.84 5.5,10.64 11.49,21.06 18.05,31.19 -3.64,-4.54 -7.75,-11.12 -10.96,-15.97 l -8.82,-16.65 -6.94,-14.67 c -4.63,-12.37 -12.53,-33.53 -14.16,-74.15 -7.2,-20.26 -12.18,-42.04 -14.61,-65.4 2.58,20.84 7.52,40.41 14.4,58.78 -0.54,-24.24 1.09,-54.9 6.66,-94.07 -11.44,-31.33 -11.47,-61.67 -6.13,-89.46 -4.24,25.98 -2.52,52.65 7.7,79.05 4.09,-26.54 9.92,-56.76 17.98,-91.2 -4.77,-11.19 -6.41,-23.36 -4.45,-36.81 -0.71,10.31 1.56,19.73 6.4,28.48 5.06,-21.15 10.96,-43.86 17.78,-68.23 -1.66,-1.66 -2.68,-3.5 -2.95,-5.59 -7,12.07 -13.4,23.98 -19.26,35.72 -0.82,3.27 -1.53,6.49 -1.97,9.62 0.16,-2.54 0.52,-5.15 1.05,-7.8 -7.42,15.04 -13.91,29.79 -19.45,44.23 -1.04,4.12 -2.03,8.28 -2.83,12.53 0.58,-3.6 1.37,-7.18 2.18,-10.76 -5.56,14.67 -10.13,29.02 -13.69,42.98 -0.62,3.29 -1.24,6.58 -1.78,9.83 0.27,-2.13 0.57,-4.26 0.86,-6.39 -0.02,0.04 -0.03,0.08 -0.04,0.11 0.02,-0.05 0.03,-0.11 0.04,-0.16 0.18,-1.26 0.32,-2.5 0.51,-3.77 l 4.96,-21.26 c 0.25,-0.78 0.47,-1.49 0.71,-2.26 -0.47,1.69 -0.9,3.44 -1.35,5.19 -0.84,3.78 -1.71,7.77 -2.56,11.95 1.67,-7.33 3.49,-14.65 5.63,-21.92 2.81,-7.92 5.9,-16.2 9.45,-24.95 1.58,-5.51 3.34,-10.98 5.35,-16.39 -1.02,2.32 -2.09,4.48 -3.09,6.89 1.39,-3.52 2.83,-6.94 4.33,-10.34 1.71,-4.39 3.54,-8.74 5.52,-13.05 -0.98,2.31 -1.9,4.75 -2.85,7.12 3.67,-7.83 7.77,-15.65 12.6,-23.95 1.09,-2.66 2.34,-5.37 3.73,-8.14 -2.31,3.97 -5.03,8.76 -8.51,14.94 3.39,-6.45 6,-11.11 8.97,-15.85 0.57,-1.11 1.04,-2.19 1.67,-3.32 -0.42,0.82 -0.73,1.61 -1.1,2.43 0.23,-0.39 0.46,-0.76 0.7,-1.15 -0.27,0.46 -0.57,0.99 -0.86,1.48 -1.17,2.48 -2.3,4.94 -3.27,7.34 3.41,-5.78 7.16,-11.8 11.4,-18.31 -4.01,6.43 -8.08,13.22 -12.13,20.26 -1.02,2.62 -1.94,5.2 -2.72,7.74 5.12,-9.74 10.99,-20.13 17.79,-31.31 -0.03,-0.37 -0.03,-0.73 -0.01,-1.11 -0.98,1.48 -2,2.99 -2.93,4.42 0.99,-1.57 1.95,-3.12 2.93,-4.67 0.01,-0.2 -0.03,-0.38 0,-0.58 -4.28,5.96 -7.52,10.58 -10.2,14.74 3.54,-5.92 6.35,-10.14 10.33,-15.55 0.02,-0.12 0.08,-0.26 0.11,-0.39 -3.1,4.13 -6.1,8.29 -8.62,12.06 -0.47,0.86 -0.94,1.73 -1.42,2.6 0.28,-0.55 0.46,-1.07 0.75,-1.62 l 0.84,-1.39 0.59,-0.97 c 2.32,-3.33 5.1,-7.19 7.97,-11 0.21,-0.92 0.42,-1.83 0.85,-2.82 l 1.16,-1.73 c 1.82,-1.93 4.3,-4.45 6.39,-6.08 -2.03,1.95 -4.61,4.4 -6.57,6.71 -0.27,0.76 -0.45,1.49 -0.5,2.18 2.42,-3.18 4.85,-6.28 7.07,-8.89 -2.17,2.71 -4.61,5.85 -7.05,9.05 0,0.06 0.02,0.11 0.02,0.16 1.99,-2.65 4.25,-5.6 7.03,-9.21 -2.66,3.68 -4.93,6.81 -7,9.69 0,0.08 0,0.16 0.02,0.23 2.26,-3.33 4.58,-6.65 6.98,-9.92 -2.46,3.57 -4.75,6.96 -6.96,10.26 0.05,0.25 0.06,0.5 0.14,0.73 2.23,-3.63 4.38,-7.19 6.82,-10.99 -2.31,3.78 -4.46,7.52 -6.66,11.28 0.47,1.15 1.29,2.19 2.59,3.09 1.34,-4.77 2.65,-9.47 4.07,-14.37 -0.69,5.13 -1.59,10.22 -2.37,15.33 7.43,3.8 23.69,5.26 48.74,5.41 -7.62,-30.49 -21.33,-43.82 -46.37,-20.74 32.54,-30.67 50.25,-15.8 60.31,20.71 8.08,-0.08 16.82,-0.23 26.35,-0.47 40.58,-1.01 78.38,-0.7 113.73,0.7 -19.01,-44.55 -40.62,-73.05 -64.81,-85.4 -52.32,12.09 -95.29,29.12 -120.6,47.33 -1.67,1.8 -3.38,3.63 -4.78,5.19 -3.37,3.81 -6.77,7.76 -10.2,11.94 1.11,-1.37 2.22,-2.72 3.32,-4.07 -1.98,2.34 -3.14,3.8 -3.32,4.07 3.15,-4.46 6.48,-8.88 9.93,-13.29 -1.11,0.9 -2.2,1.79 -3.23,2.68 -2.13,3.22 -4.31,6.64 -6.7,10.61 2.48,-4.05 4.53,-7.35 6.52,-10.43 -0.82,0.73 -1.61,1.45 -2.38,2.18 -1.64,2.61 -3.29,5.65 -4.14,8.25 0.62,-2.31 1.74,-5.4 3.14,-7.33 l 2.55,-3.26 c 0.8,-0.85 1.71,-1.72 2.61,-2.58 3.15,-4.73 6.25,-8.92 10.47,-13.73 -3.4,4.03 -6.66,8.35 -10.09,13.35 1.55,-1.48 3.21,-2.97 5.05,-4.48 10.08,-12.45 21.31,-24.6 33.49,-36.1 -4.31,3.4 -7.83,6.33 -10.35,8.49 -8.17,8.02 -13.73,13.75 -18.1,18.74 6.62,-7.84 13.83,-14.85 24.23,-24.91 4.46,-3.83 9.72,-8.14 15.69,-12.75 37.6,-32.74 82.83,-58.86 130.49,-69.18 52.57,-16.99 115.99,-25.63 187.81,-12.95 3.83,0.88 8.17,2.03 12.58,3.22 7.07,1.81 14.36,3.73 20.35,5.71 l 15.51,5.37 c 60.67,25.7 105.42,64.75 137.95,110.6 38.12,31.39 69.2,73.89 88.87,130.4 -15.9,-41.82 -40.4,-75.42 -70.75,-102.08 37.75,65.69 54.21,141.54 58.59,211.25 21.14,61.8 8.89,128.43 -16.9,184.64 -2.26,7.47 -4.59,13.97 -6.94,19.32 12.07,-18.47 21.5,-37.24 28.99,-55.62 4.84,-12.77 10.36,-28.29 15.24,-46.97 2.38,-9.57 4.35,-18.39 5.97,-27.01 2.27,-12.48 4.07,-26.02 5.07,-40.82 0.57,-8.79 0.88,-18.13 0.93,-28.54 0.01,0.63 0.05,1.24 0.05,1.88 0.09,9.19 -0.32,22.08 -1.8,37.3 -0.89,10.01 -2.22,19.99 -4.26,30.79 -2.15,11.98 -5.08,24.76 -8.94,38.08 -0.55,2.09 -1.08,4.08 -1.69,6.27 -2.45,7.81 -3.65,11.45 -6.09,17.87 -2.42,6.91 -3.69,9.97 -6.97,17.72 -10.49,23.56 -18.01,36.78 -26.78,49.68 -1.61,3.6 -3.22,6.74 -4.8,9.24 l -0.22,0.31 c -0.65,0.97 -1.51,2.31 -2.18,3.28 -1.74,2.31 -4.61,4.92 -6.84,6.74 2.6,-2.27 5.38,-5.58 7.76,-8.53 0.93,-1.82 1.85,-3.78 2.75,-5.91 -3.22,4.54 -6.66,9.21 -10.51,14.44 3.89,-5.02 7.38,-10.12 10.84,-15.21 1.37,-3.33 2.7,-7.04 3.96,-11.05 -4.6,9.14 -9.53,17.96 -14.8,26.26 5.23,-8.37 10.18,-17.2 14.82,-26.29 12.72,-40 20.39,-112.94 13.27,-193.67 -22.68,-51.29 -71.49,-99.02 -159.61,-133.46 18.86,50.99 35.29,112.05 48.46,184.6 75.13,36.07 120.99,87.73 83.06,168.82 30.59,-68.52 -10.53,-113.12 -78.96,-145.29 0.11,0.68 0.23,1.34 0.35,2.03 9.2,55.74 15.84,95.99 21.79,123.83 33.77,6.06 50.82,11.49 56.82,19.43 -7.7,-3.27 -20.49,-5.36 -54.46,-8.9 4.35,18.5 8.45,30.16 13.07,36.28 15.57,-8.01 29.48,-17.14 41.39,-27.38 -7.52,6.88 -17.84,15.83 -26.31,21.47 -4.21,2.8 -8.63,5.48 -13.18,8.08 2.09,2.03 4.3,3.09 6.7,3.16 11.58,-10.26 22.59,-21.12 32.79,-32.71 -9.59,11.45 -20.01,22.3 -31.03,32.62 2.05,-0.3 4.25,-1.21 6.62,-2.66 8.55,-9.47 16.72,-19.43 24.41,-29.96 -8.05,10.87 -15.7,20.46 -22.97,29 2.09,-1.42 4.29,-3.2 6.66,-5.36 2.09,-2.47 3.7,-4.38 5.07,-6.04 -2.86,3.95 -5.5,6.9 -10.65,12.47 -1.82,1.48 -3.5,2.55 -5.2,3.68 -28.46,32.5 -50.68,48.51 -66.6,59.95 l -14.47,9.22 -9.88,5.74 c -34.5,17.51 -63.21,23.74 -87.58,19.26 z m -421.59,-529.61 c -4.8,8.47 -9.49,17.58 -14.02,27.45 -2.05,5.51 -3.95,11.23 -5.72,17.05 4.74,-11.44 10.33,-23.72 17.39,-37.3 0.65,-2.35 1.42,-4.76 2.35,-7.2 z m 696.8,211.1 c -0.2,3.39 -0.49,6.73 -0.78,10.08 0.29,-3.28 0.55,-6.65 0.78,-10.08 z m -48.06,150.16 c 19.45,-44.16 29.23,-95.45 17.88,-145.44 0.16,59.76 -7.98,112.14 -17.88,145.44 z m -460.53,154.09 c 72.21,26.31 150.5,28.91 224.06,11.98 -21.9,-6.83 -40.08,-23.18 -55.68,-48.56 -75.63,-2.11 -154.09,-18.39 -221.25,-50.91 12.29,35.38 29.27,65.61 52.87,87.49 z m -57.39,-101.34 c 66.41,33.07 144.42,51.15 220.28,55.34 -15.18,-27.83 -27.87,-64.93 -39.27,-110.76 -71.98,-14.73 -144.31,-36.47 -203.66,-69.75 4.27,44.32 11.11,87.23 22.65,125.17 z m 175.84,-77.14 c -9.22,-40.55 -17.65,-87.1 -25.99,-139.59 -0.98,-6.13 -2,-12.05 -2.99,-17.99 -70.07,-16.66 -130.77,-32.36 -177.84,-50.3 0.14,4.19 0.28,8.37 0.41,12.53 1.32,40.65 2.7,83.72 6.06,126.12 49.42,25.71 115.02,49.21 200.35,69.23 z m -324.27,-112.72 c -0.98,18.31 -0.98,34.21 -0.36,48.24 25.65,53.73 69.26,95.97 122.56,127.38 -9.43,-35.73 -14.92,-77.16 -18.16,-123.91 -51.99,-33.36 -82.74,-67.79 -99.22,-101.42 -2.14,16.47 -3.95,33.01 -4.82,49.71 z m 6.28,-60.99 c 16.72,32.17 47.21,63.67 96.52,92.74 -2.18,-39.7 -3.04,-82.9 -3.53,-129.4 -0.02,-1.61 -0.03,-3.23 -0.04,-4.85 -35.93,-15.44 -61.98,-32.75 -75.8,-53.73 -6.36,31.64 -12.57,63.29 -17.15,95.24 z m 85.47,-170.96 c -26.97,-1.71 -44.21,-4.7 -52.3,-10.16 -4.04,25.26 -8.89,50.36 -13.93,75.45 13.95,17.18 39.03,31.66 73.48,44.95 -0.57,-39.66 -1.86,-80.5 -7.25,-110.24 z m 76.3,2.34 c -23.89,-0.34 -44.43,-0.8 -61.84,-1.57 6.46,31.1 8.93,73.19 10.54,115.92 45.78,15.83 105,30.3 174.27,46.22 -11.75,-63.96 -25.4,-116.43 -40.91,-157.41 -25.95,-1.64 -53.23,-2.74 -82.06,-3.16 z m 100.31,-12.65 c 81.91,4.68 149.46,15.75 204.6,31.65 -26.18,-61.52 -54.96,-104.8 -84.86,-134.05 -65.29,-5.08 -131.25,0.11 -188.3,11.27 23.83,14.05 47.04,42.78 68.56,91.13 z m -204.22,-45.86 c 22.36,-15.88 58.08,-32.28 101.68,-45.66 -29.16,-7.94 -61.77,5.85 -97.8,41.64 -1.4,1.42 -2.57,2.67 -3.88,4.02 z m 86.01,-70.47 c -22.62,14 -42.81,30 -59.37,44.8 31,-25.17 63.81,-37.79 95.88,-25.98 53.71,-14.46 116.95,-23.98 180.71,-22.9 -52.26,-39.71 -106.77,-40.74 -155.88,-24.91 -22.96,8.83 -43.51,18.95 -61.34,28.99 z M 3253.73,1444 c -70.93,-18.63 -136.32,-13.69 -191.89,1.1 45.7,-4.71 92.8,6.09 136.87,40.13 67.74,4.18 134.74,21.22 190.24,57.93 -33.44,-43.7 -77.62,-79.04 -135.22,-99.16 z m 221.48,324.55 c -9.57,-67.63 -30.07,-137.98 -66.88,-197.25 -52.72,-37.48 -118.76,-57.94 -187.03,-66.35 32.33,31.91 62.49,77.88 88.6,141.09 86.63,30.37 138.17,73.96 165.31,122.51 z M 3289.08,1660.1 c -55,-17.8 -123.2,-30.97 -206.85,-37.76 16.38,41.14 31.66,94.52 45.35,162.43 5.99,1.36 12.06,2.74 18.18,4.13 63.21,14.36 135.69,30.84 195.59,54.97 -15.4,-73.14 -33.03,-133.87 -52.27,-183.77 z m 65.86,254.73 c -2.78,-16.16 -5.68,-31.68 -8.67,-46.82 -55.2,-21.74 -122.44,-37.42 -183.77,-51.7 -10.23,-2.38 -20.25,-4.72 -30.18,-7.04 0.9,4.84 1.82,9.52 2.71,14.5 9.01,50.55 17.73,99.37 27.95,143.08 41.6,8.82 87.34,16.88 137.95,24.03 27.91,3.93 51.05,7.26 70.34,10.29 -5.51,-23.66 -10.57,-52.94 -16.33,-86.34 z m 40.12,144.03 c -8.4,-7.74 -14.93,-23.48 -20.76,-45.56 -4.79,-0.46 -9.77,-0.96 -15.18,-1.48 -52.36,-5.04 -120.47,-11.64 -191.1,-24.27 10.8,42.2 23.44,78.52 39.69,105.55 69.81,0.2 135.95,-11.51 187.35,-34.24 z m 3.11,2.39 c -49.48,24.5 -115.04,38.51 -184.99,40.33 14.61,21.34 32.04,35.51 53.42,40.33 52.78,-16.33 102.17,-42.81 143.99,-77.92 -4.55,0.62 -8.68,-0.3 -12.42,-2.74 z m -48.48,61.43 c 25.72,-16.93 44.3,-33.29 72.03,-62.73 -3.01,1.78 -5.82,2.9 -8.5,3.6 -39.08,34.81 -85.99,62.32 -137.24,79.84 20.76,1.94 45.06,-4.42 73.71,-20.71 z m -544.38,-461.95 c -4.57,11.57 -8.76,24.12 -13.43,39.23 3.99,-14.51 8.54,-27.46 13.43,-39.23 z m 634.7,381.34 c 2.74,-3.82 5.67,-8.59 11.24,-17.6 -5.33,9.6 -7.17,12.59 -11.24,17.6 z m 80.17,-271.52 1.56,23.36 c 0.04,3.95 0.04,7.71 0.03,11.4 -0.22,-16.21 -1.4,-31.58 -3.37,-46.23 0.6,3.81 1.25,7.57 1.78,11.47 z m -737.43,-22.39 c 0.46,-4.46 1.21,-9.41 2.09,-14.47 -3.91,29.5 -4.31,57.05 -1.64,82.7 -2.65,-21.43 -2.97,-44.13 -0.45,-68.23 z m 32.41,-110.82 c 0.28,-0.69 0.56,-1.39 0.86,-2.07 l 2.57,-5.23 c 0.58,-1.02 1,-1.77 1.54,-2.73 -0.84,1.62 -1.84,3.55 -2.81,5.42 -0.73,1.54 -1.46,3.07 -2.16,4.61 z m 703.24,121.74 c -3.95,-24.62 -9.62,-47.22 -16.83,-67.94 7.82,20.59 13.49,43.24 16.83,67.94" />
      </g>
    </g>
    <g
       id="g1228"
       transform="matrix(0.03527778,0,0,-0.03527778,-93.579248,81.521344)">
      <g
         clip-path="url(#clipPath1234)"
         id="g1230">
        <path
           inkscape:connector-curvature="0"
           id="path1250"
           style="fill:url(#radialGradient1248);fill-opacity:1;fill-rule:nonzero;stroke:none"
           d="m 3360.05,2043.08 c 32.2,-105.7 -63.64,-228.55 -214.1,-274.4 -150.46,-45.84 -298.55,2.68 -330.75,108.37 -32.2,105.72 63.65,228.56 214.1,274.41 150.47,45.85 298.54,-2.67 330.75,-108.38" />
      </g>
    </g>
    <g
       id="g1252"
       transform="matrix(0.03527778,0,0,-0.03527778,-93.579248,81.521344)">
      <g
         clip-path="url(#clipPath1258)"
         id="g1254">
        <path
           inkscape:connector-curvature="0"
           id="path1276"
           style="fill:url(#radialGradient1274);fill-opacity:1;fill-rule:nonzero;stroke:none"
           d="m 3501.17,1834.88 c -7.69,74.49 -36.25,148.55 -89.08,211.19 13.12,-7.35 24.94,-16.82 35.31,-28.58 2.74,-4.91 5.51,-10.82 10.43,-21.4 7.76,-12.48 14.71,-25.39 20.88,-38.59 -7.71,23.83 -7.95,24.24 -20.37,46.1 l -5.04,7.53 c -2.62,3.8 -5.84,8.11 -9.12,12.41 -3.22,4.35 -6.47,8.68 -9.39,12.28 -13.48,14.39 -28.27,25.52 -44.44,33.79 -21.52,21.66 -46.17,41.7 -74.39,59.43 -24.59,13.22 -50.1,23.43 -76.08,30.74 58.23,-18.98 106.49,-49.57 145.08,-87.64 -29.3,13.6 -62.93,18.25 -101.11,16.09 -48.83,40.4 -105.71,67.36 -168.75,72.02 32.24,9.54 54.29,11.11 69.45,10.62 11.9,-1.47 23.75,-3.47 35.53,-6.1 -5.53,1.83 -13.13,3.41 -18.79,4.73 l -18.67,2.5 -16.17,1.4 c -13.21,0.07 -35.79,0.12 -74.46,-12.43 -21.49,-0.29 -43.65,-3.18 -66.4,-9 20.45,4.82 40.5,6.97 60.12,6.89 -22.92,-7.9 -51.1,-20.07 -85.91,-38.89 -33.35,-0.15 -61.82,-10.65 -86.03,-25.28 22.89,12.99 48.5,20.63 76.82,20.2 -23.48,-13.04 -49.8,-29.01 -79.3,-48.51 -12.15,0.58 -24.14,-2.1 -36.08,-8.59 9.44,4.23 19.05,5.37 28.94,3.87 -18.08,-12.09 -37.33,-25.51 -57.82,-40.35 -2.13,0.98 -4.22,1.3 -6.27,0.83 8.9,10.74 17.84,20.88 26.82,30.45 2.79,1.91 5.56,3.68 8.33,5.2 -2.32,-1.05 -4.63,-2.3 -6.95,-3.71 11.54,12.19 23.13,23.4 34.75,33.6 3.49,2.4 7.06,4.77 10.76,7.01 -3.18,-1.8 -6.26,-3.79 -9.34,-5.79 11.84,10.3 23.7,19.58 35.57,27.75 2.86,1.73 5.74,3.45 8.59,5.09 -1.89,-1 -3.79,-2.02 -5.68,-3.03 0.02,0.02 0.06,0.05 0.09,0.07 -0.05,-0.03 -0.1,-0.07 -0.15,-0.09 -1.11,-0.6 -2.22,-1.16 -3.36,-1.79 l -18.2,-12.02 c -0.66,-0.5 -1.25,-0.96 -1.89,-1.45 1.43,1.02 2.92,2.04 4.41,3.07 3.25,2.1 6.69,4.3 10.31,6.55 -6.3,-4.12 -12.53,-8.37 -18.59,-12.9 -6.47,-5.38 -13.15,-11.15 -20.12,-17.52 -4.63,-3.39 -9.14,-6.94 -13.53,-10.7 1.82,1.76 3.47,3.51 5.39,5.29 -2.82,-2.53 -5.52,-5.08 -8.19,-7.65 -3.53,-3.12 -6.97,-6.36 -10.33,-9.69 1.84,1.71 3.79,3.41 5.7,5.12 -6.08,-6.15 -11.99,-12.71 -18.09,-20.12 -2.12,-1.94 -4.23,-4.06 -6.34,-6.33 2.92,3.56 6.46,7.76 11.05,13.17 -4.87,-5.41 -8.34,-9.49 -11.74,-13.91 -0.85,-0.92 -1.7,-1.74 -2.55,-2.72 0.63,0.67 1.27,1.24 1.9,1.88 -0.28,-0.35 -0.55,-0.7 -0.83,-1.07 0.33,0.42 0.72,0.89 1.08,1.33 1.92,1.96 3.84,3.86 5.76,5.61 -4.24,-5.2 -8.59,-10.8 -13.23,-17.04 4.64,5.99 9.6,12.16 14.81,18.4 2.1,1.86 4.2,3.62 6.31,5.23 -7.37,-8.18 -15.07,-17.28 -23.2,-27.54 -0.34,-0.1 -0.69,-0.22 -1.04,-0.37 1.04,1.43 2.11,2.91 3.12,4.28 -1.13,-1.47 -2.24,-2.91 -3.35,-4.37 -0.18,-0.08 -0.38,-0.1 -0.55,-0.2 4.11,6.08 7.32,10.71 10.29,14.67 -4.33,-5.36 -7.31,-9.46 -11.01,-15.08 -0.1,-0.06 -0.2,-0.17 -0.32,-0.23 2.8,4.33 5.66,8.59 8.32,12.26 0.65,0.74 1.29,1.49 1.94,2.24 -0.41,-0.45 -0.83,-0.81 -1.25,-1.26 l -1.02,-1.28 -0.7,-0.89 c -2.31,-3.34 -4.97,-7.28 -7.55,-11.28 -0.79,-0.53 -1.57,-1.03 -2.35,-1.78 l -1.23,-1.69 c -1.17,-2.37 -2.68,-5.58 -3.48,-8.11 1.12,2.59 2.54,5.85 4.02,8.5 0.62,0.51 1.24,0.94 1.87,1.22 -2.14,-3.38 -4.21,-6.73 -5.89,-9.72 1.8,2.99 3.89,6.36 6.05,9.76 0.04,0.02 0.1,0.03 0.16,0.04 -1.81,-2.79 -3.79,-5.93 -6.21,-9.8 2.53,3.78 4.69,6.99 6.66,9.93 0.08,0.02 0.16,0.05 0.23,0.06 -2.34,-3.27 -4.64,-6.6 -6.89,-9.99 2.5,3.55 4.88,6.88 7.22,10.09 0.24,0.04 0.47,0.11 0.73,0.13 -2.64,-3.36 -5.23,-6.61 -7.95,-10.22 2.75,3.49 5.51,6.8 8.28,10.17 1.23,-0.04 2.49,-0.45 3.79,-1.35 -4,-2.92 -7.97,-5.78 -12.07,-8.82 4.57,2.43 9.04,5.03 13.56,7.54 6.15,-5.64 13.16,-20.39 21.99,-43.83 -31.25,-3.43 -48.5,4.8 -35.55,36.29 -17.48,-41.15 2.63,-52.6 40.35,-49.37 2.74,-7.61 5.63,-15.86 8.71,-24.88 13.15,-38.41 26.54,-73.75 40.12,-106.41 -48.38,2.36 -82.6,12.74 -102.58,31.14 -6.83,53.26 -5.76,99.48 2.54,129.53 1.11,2.2 2.23,4.43 3.2,6.28 2.42,4.5 4.93,9.05 7.66,13.71 -0.9,-1.5 -1.78,-3.01 -2.66,-4.52 1.51,2.66 2.48,4.26 2.66,4.52 -3.07,-4.5 -6.07,-9.15 -9,-13.92 0.44,1.35 0.89,2.69 1.38,3.95 2.29,3.12 4.73,6.35 7.62,9.97 -2.93,-3.73 -5.31,-6.8 -7.52,-9.72 0.4,1.02 0.81,2.01 1.23,2.97 1.88,2.45 4.14,5.06 6.29,6.75 -1.95,-1.37 -4.45,-3.51 -5.78,-5.49 l -2.17,-3.51 c -0.53,-1.05 -1.02,-2.21 -1.52,-3.35 -3.34,-4.6 -6.19,-8.96 -9.24,-14.58 2.6,4.59 5.53,9.15 9.02,14.1 -0.85,-1.98 -1.68,-4.05 -2.45,-6.29 -8.17,-13.78 -15.67,-28.53 -22.24,-43.95 1.7,5.23 3.23,9.54 4.38,12.66 4.69,10.45 8.12,17.65 11.29,23.48 -5.05,-8.92 -9.12,-18.13 -14.95,-31.38 -2.04,-5.51 -4.27,-11.94 -6.53,-19.13 -17.64,-46.61 -26.44,-98.11 -19.6,-146.4 2.32,-55.19 16.23,-117.66 53.04,-180.61 2.16,-3.3 4.74,-6.97 7.39,-10.69 4.14,-6 8.48,-12.18 12.41,-17.11 l 10.42,-12.68 c 45.16,-47.98 97.31,-76.39 151.6,-90.99 42.66,-24.87 93.32,-39.27 153.13,-38.11 -44.72,0.41 -84.74,11.72 -120.29,30.93 74.71,-12.61 151.56,-1.72 218.46,18.36 65.29,1.62 123.53,36.23 167.3,79.92 6.23,4.71 11.51,9.16 15.72,13.22 -13.14,-17.73 -27.48,-33.08 -42.11,-46.5 -10.29,-8.96 -22.94,-19.53 -38.77,-30.58 -8.14,-5.55 -15.74,-10.47 -23.26,-14.98 -10.91,-6.45 -22.99,-12.84 -36.52,-18.91 -8.05,-3.59 -16.7,-7.12 -26.45,-10.78 0.61,0.21 1.2,0.38 1.8,0.6 8.63,3.11 20.59,7.97 34.36,14.63 9.06,4.31 17.97,9.03 27.38,14.68 10.49,6.17 21.46,13.36 32.62,21.6 1.75,1.24 3.45,2.43 5.29,3.76 6.48,5.02 9.47,7.39 14.65,11.92 5.64,4.66 8.06,6.92 14.2,12.69 18.45,18 28.24,29.64 37.3,42.35 2.81,2.76 5.2,5.36 6.99,7.71 l 0.22,0.3 c 0.68,0.96 1.64,2.23 2.32,3.2 1.57,2.43 3.01,6.03 3.95,8.75 -1.23,-3.23 -3.36,-6.99 -5.31,-10.24 -1.39,-1.5 -2.89,-3.04 -4.59,-4.62 3.14,4.6 6.32,9.43 9.9,14.86 -3.36,-5.38 -6.93,-10.43 -10.51,-15.45 -2.64,-2.43 -5.66,-4.96 -8.98,-7.55 6.97,7.49 13.53,15.17 19.49,23 -6.04,-7.82 -12.6,-15.51 -19.51,-23.03 -33.11,-25.8 -98.85,-58.31 -177.03,-79.65 -55.98,3.48 -117.68,32.7 -180.56,103.38 54.36,0 117.33,5.79 189.95,18.61 59.9,-57.95 124.26,-83.02 187.15,-19.31 -53.65,-52.46 -109.75,-29.38 -163.65,23.64 0.66,0.13 1.32,0.24 2.01,0.37 55.47,10.72 95.53,18.45 123.71,22.54 17.4,-29.57 28.4,-43.68 37.93,-46.55 -5.74,6.08 -12.13,17.34 -27.25,47.99 18.87,2.33 31.23,2.53 38.56,0.33 -2.11,-17.38 -5.84,-33.61 -11.31,-48.32 3.85,9.43 8.65,22.22 11.01,32.13 1.16,4.91 2.13,10 2.99,15.17 2.64,-1.26 4.4,-2.98 5.3,-5.21 -5.61,-14.41 -11.98,-28.5 -19.3,-42.09 7.42,12.96 13.96,26.5 19.82,40.41 0.43,-2.02 0.35,-4.4 -0.19,-7.12 -5.92,-11.31 -12.42,-22.43 -19.63,-33.29 7.4,11.32 13.75,21.82 19.22,31.6 -0.61,-2.45 -1.51,-5.13 -2.72,-8.11 -1.58,-2.81 -2.81,-4.98 -3.9,-6.84 2.73,4.05 4.57,7.55 8,14.31 0.77,2.22 1.18,4.17 1.64,6.16 20.63,37.96 27.91,64.36 33.13,83.26 l 3.61,16.77 1.96,11.26 c 4.47,38.43 0.33,67.52 -12.33,88.83 z m -642.99,211.61 c 6.27,7.43 13.19,14.99 20.88,22.66 4.46,3.84 9.16,7.6 14.01,11.3 -9.09,-8.42 -18.67,-17.93 -28.95,-29.26 -1.99,-1.43 -3.96,-2.99 -5.94,-4.7 z m 439.79,-580.25 c 3.1,1.36 6.13,2.78 9.18,4.23 -2.99,-1.43 -6.06,-2.83 -9.18,-4.23 z m 124.14,97.17 c -34.67,-33.56 -79.38,-60.54 -130.2,-67.24 56.12,20.59 102.41,46.41 130.2,67.24 z m -15.29,485.38 c 49.74,-58.58 79.33,-131.11 88.98,-205.97 -14,18.16 -35.64,29.54 -64.86,35.38 -28.23,70.18 -70.73,138.13 -124.51,189.84 37.44,0.74 71.68,-4.7 100.39,-19.25 z m -114.96,18.67 c 54.06,-50.81 98.08,-117.7 128.34,-187.39 -31.37,4.58 -70.57,3.62 -117.5,-1.6 -38.79,62.39 -84.28,122.68 -136.1,166.8 43.05,11.37 85.67,19.84 125.26,22.19 z m -11.33,-191.68 c -41.23,-5.43 -87.82,-13.67 -139.92,-24.06 -6.1,-1.22 -12,-2.33 -17.93,-3.44 -39.93,59.93 -75.72,111.41 -108.88,149.33 3.97,1.32 7.95,2.64 11.89,3.96 38.59,12.88 79.47,26.52 120.38,38.08 41.27,-37.43 86.08,-90.8 134.46,-163.87 z m -218.24,265.01 c 16.83,7.27 31.75,12.78 45.12,17.06 59.29,-5.4 114.04,-31.65 161.98,-70.72 -36.77,-3.57 -77.53,-12.79 -122.5,-25.97 -49.33,37.18 -92.28,54.06 -129.55,57.86 14.71,7.71 29.59,15.14 44.95,21.77 z m -55.02,-27.06 c 35.98,-4.52 76.09,-22.19 120.46,-58.34 -37.98,-11.73 -78.8,-25.92 -122.57,-41.6 -1.52,-0.55 -3.05,-1.09 -4.57,-1.64 -26.94,28.33 -52.21,46.76 -76.68,52.44 27.46,16.95 54.98,33.77 83.36,49.14 z M 2876.6,1974.24 c -10.97,24.7 -19.74,39.83 -27.67,45.53 22.27,12.56 44.14,25.82 65.91,39.25 20.96,-7.13 43.25,-25.63 67.66,-53.32 -37.38,-13.24 -76.14,-26.19 -105.9,-31.46 z m 28.67,-70.74 c -8.62,22.29 -16.17,41.39 -22.93,57.45 31.39,4.73 71.74,17.02 112.37,30.34 30.73,-37.45 64.86,-87.96 103.81,-147.41 -64.05,-11.17 -117.99,-16.58 -161.82,-16.24 -10.55,23.76 -21.04,48.96 -31.43,75.86 z m 22.94,-98.47 c 32.81,-75.19 66.63,-134.71 100.68,-180.91 -66.78,3.2 -117.35,15.18 -155.16,33.08 -27.43,59.47 -45.45,123.13 -54.78,180.51 21.44,-17.48 56.44,-29.28 109.26,-32.68 z m -113.87,175.61 c -7.13,-26.48 -10.12,-65.67 -7.54,-111.2 -17.56,24.59 -15.96,59.96 5.1,106.17 0.85,1.81 1.62,3.35 2.44,5.03 z m -36.25,-105.12 c 5.27,26.08 13.28,50.56 21.41,71.24 -12.84,-37.81 -13.29,-72.97 8.9,-98.94 5.08,-55.4 18.1,-118.01 41.23,-177.43 -55.36,35.23 -75.25,85.99 -77.44,137.54 0.32,24.6 2.67,47.38 5.9,67.59 z m 61.54,-294.06 c -42.1,60.05 -60.16,123.09 -65.57,180.34 11.45,-44.5 37.91,-84.91 85.14,-114.44 27.43,-62.08 66.65,-119 120.34,-158.31 -52.59,16.2 -101.06,45.36 -139.91,92.41 z m 381.23,-95.11 c -66.76,-14.49 -139.84,-19.66 -208.2,-5.71 -53.45,36.43 -95.56,91.27 -127.13,152.38 41.14,-19.25 94.72,-31.57 163.06,-34.14 58.56,-70.7 117.31,-103.92 172.27,-112.53 z m -166.3,136.94 c -35.79,45.41 -71.8,104.8 -107.2,180.89 44.28,-1.09 99.65,3.11 168.07,13.83 3.36,-5.15 6.76,-10.35 10.2,-15.61 35.39,-54.3 75.99,-116.55 119.41,-164.37 -73.93,-10.92 -137,-15.47 -190.48,-14.74 z m 261.75,26.62 c -16.11,-2.99 -31.68,-5.65 -46.92,-8.11 -39.55,44.22 -77.59,101.85 -112.26,154.41 -5.78,8.77 -11.45,17.36 -17.07,25.86 4.84,0.84 9.57,1.6 14.53,2.49 50.55,9.09 99.36,17.85 143.89,23.44 22.71,-35.95 46.15,-76.06 70.41,-121.04 13.38,-24.81 24.53,-45.36 34.06,-62.4 -24.1,-3.04 -53.32,-8.46 -86.64,-14.65 z m 149,12.36 c -10.17,5.19 -27.2,5.86 -49.92,3.67 -2.11,4.32 -4.3,8.82 -6.66,13.71 -22.89,47.36 -52.73,108.95 -89.08,170.81 43.32,4.51 81.78,5.26 112.77,-0.6 24.4,-65.4 36.37,-131.5 32.89,-187.59 z m 3.32,-2.09 c 5.82,54.9 -3.81,121.27 -26.36,187.49 25.07,-6.29 44.41,-17.73 56.34,-36.1 3.01,-55.17 -4.68,-110.69 -23.1,-162.08 -1,4.48 -3.28,8.03 -6.88,10.69 z m 40.8,66.79 c -6.95,-30 -15.86,-53.11 -33.84,-89.33 0.62,3.45 0.7,6.47 0.43,9.23 19.08,48.73 28.61,102.27 27.24,156.42 9.03,-18.8 11.51,-43.79 6.17,-76.32 z m -622.16,350.25 c 9.27,8.3 19.59,16.58 32.13,26.21 -12.22,-8.78 -22.78,-17.54 -32.13,-26.21 z m 577.89,-462.93 c -2.62,-3.9 -6.08,-8.31 -12.6,-16.65 7.15,8.34 9.32,11.09 12.6,16.65 z m -226.82,-169.41 22.44,6.64 c 3.73,1.33 7.25,2.64 10.7,3.93 -15.27,-5.42 -30.09,-9.65 -44.53,-12.87 3.79,0.74 7.54,1.44 11.39,2.3 z m -276.89,683.84 c -4.03,-1.99 -8.41,-4.42 -12.86,-6.98 26.31,13.9 52.02,23.84 77,30.23 -21.02,-4.95 -42.43,-12.53 -64.14,-23.25 z m -92.7,-68.84 c -0.55,-0.52 -1.11,-1.03 -1.64,-1.54 l -4,-4.23 c -0.77,-0.9 -1.32,-1.56 -2.04,-2.39 1.23,1.36 2.7,2.96 4.11,4.51 1.19,1.22 2.37,2.45 3.57,3.65 z m 358.2,-617.3 c -24.45,-4.86 -47.61,-7.37 -69.55,-7.81 22.03,-0.19 45.24,2.36 69.55,7.81" />
      </g>
    </g>
    <g
       id="g1278"
       transform="matrix(0.03527778,0,0,-0.03527778,-93.579248,81.521344)">
      <g
         clip-path="url(#clipPath1284)"
         id="g1280">
        <path
           inkscape:connector-curvature="0"
           id="path1296"
           style="fill:url(#radialGradient1294);fill-opacity:1;fill-rule:nonzero;stroke:none"
           d="m 2840.43,2018.05 c -0.37,-0.58 -0.73,-1.17 -1.09,-1.76 0.6,0.45 1.24,0.92 1.85,1.37 -0.25,0.18 -0.51,0.25 -0.76,0.39" />
      </g>
    </g>
    <g
       id="g1300"
       clip-path="url(#clipPath1304)"
       transform="matrix(0.03527778,0,0,-0.03527778,-93.579248,81.521344)">
      <path
         d="m 3085.64,2158.9 c -22.93,-7.9 -51.11,-20.07 -85.91,-38.89 -31.84,-0.14 -59.18,-9.77 -82.67,-23.37 -0.22,-0.17 -0.46,-0.33 -0.69,-0.5 22.22,12.09 46.91,19.2 74.14,18.79 -23.48,-13.04 -49.79,-29.01 -79.3,-48.51 -12.15,0.58 -24.14,-2.1 -36.07,-8.59 9.43,4.23 19.05,5.37 28.94,3.87 -18.08,-12.09 -37.34,-25.51 -57.83,-40.35 -1,0.46 -2,0.75 -2.99,0.91 -0.94,-1.4 -1.92,-2.8 -2.83,-4.21 0.25,-0.14 0.51,-0.21 0.76,-0.39 -0.61,-0.45 -1.25,-0.92 -1.85,-1.37 -0.57,-0.89 -1.1,-1.79 -1.64,-2.69 1.66,0.94 3.32,1.85 5,2.78 6.13,-5.64 13.14,-20.39 21.97,-43.83 -23.46,-2.58 -39.03,1.43 -39.85,16.92 -0.68,-1.52 -1.32,-3.05 -1.96,-4.57 -0.87,-21.66 17.64,-27.91 46.62,-25.43 2.73,-7.61 5.62,-15.86 8.7,-24.88 13.15,-38.41 26.55,-73.75 40.12,-106.41 -41.39,2.02 -72.32,9.96 -92.93,23.71 5.7,-10.82 12.74,-20.87 20.98,-30.1 20.49,-8.64 47.28,-14.5 81.79,-16.72 6.51,-14.92 13.07,-29.05 19.65,-42.75 7.38,-2.05 14.96,-3.82 22.71,-5.31 -7.77,15.01 -15.5,30.65 -23.21,47.22 44.27,-1.09 99.64,3.09 168.08,13.82 3.36,-5.15 6.74,-10.35 10.18,-15.62 7.07,-10.85 14.41,-22.07 21.89,-33.38 7.64,2.37 15.14,4.95 22.5,7.71 -4.33,6.55 -8.63,13.06 -12.87,19.5 -5.78,8.76 -11.46,17.35 -17.09,25.85 4.86,0.84 9.57,1.6 14.55,2.49 46.21,8.31 90.82,16.23 132.21,21.82 11.87,10.7 22.58,22 32.01,33.72 -5.27,-0.48 -10.62,-1.02 -16.11,-1.63 -38.81,62.39 -84.3,122.68 -136.1,166.8 43.05,11.37 85.67,19.84 125.26,22.19 26.97,-25.36 51.44,-54.73 72.97,-86.44 0.72,5.62 1.09,11.24 1.21,16.87 -17.93,25.4 -37.8,49.16 -59.63,70.15 15.37,0.3 30.17,-0.51 44.31,-2.49 -3.59,7.14 -7.77,13.97 -12.48,20.45 -17.01,2.66 -35.13,3.32 -54.41,2.23 -48.83,40.4 -105.7,67.36 -168.75,72.02 13.46,3.98 25.06,6.51 35.21,8.15 -11.5,0.27 -23.24,-0.03 -35.13,-0.92 -7.03,-1.68 -14.65,-3.75 -23.18,-6.51 -13.4,-0.19 -27.12,-1.51 -41.02,-3.79 -2.05,-0.5 -4.1,-0.99 -6.15,-1.52 13.82,2.17 27.46,3.26 40.89,3.2 z m -78.44,-45.13 c 35.98,-4.52 76.09,-22.19 120.46,-58.34 -37.98,-11.73 -78.79,-25.92 -122.58,-41.61 -1.51,-0.54 -3.04,-1.09 -4.56,-1.63 -26.95,28.33 -52.22,46.76 -76.69,52.44 27.46,16.94 55,33.76 83.37,49.14 z m -130.68,-139.49 c -10.97,24.7 -19.74,39.83 -27.67,45.52 22.28,12.57 44.14,25.83 65.92,39.25 20.95,-7.12 43.24,-25.62 67.65,-53.31 -37.38,-13.24 -76.13,-26.19 -105.9,-31.46 z m 60.11,-146.6 c -10.54,23.76 -21.04,48.96 -31.43,75.86 -8.62,22.28 -16.18,41.39 -22.93,57.44 31.39,4.74 71.73,17.03 112.36,30.35 30.74,-37.45 64.86,-87.96 103.83,-147.41 -64.07,-11.18 -118.01,-16.58 -161.83,-16.24 z m 343.82,48.14 c -41.21,-5.43 -87.81,-13.67 -139.92,-24.06 -6.1,-1.22 -11.99,-2.33 -17.93,-3.44 -39.92,59.93 -75.71,111.41 -108.87,149.32 3.98,1.33 7.95,2.65 11.9,3.97 38.57,12.88 79.45,26.52 120.37,38.08 41.27,-37.43 86.07,-90.8 134.45,-163.87 z m -173.11,282.07 c 59.3,-5.41 114.05,-31.66 162,-70.73 -36.8,-3.56 -77.54,-12.78 -122.52,-25.96 -49.34,37.18 -92.29,54.06 -129.55,57.85 14.7,7.72 29.59,15.15 44.94,21.77 16.84,7.28 31.75,12.79 45.13,17.07"
         style="fill:url(#radialGradient1318);fill-opacity:1;fill-rule:nonzero;stroke:none"
         id="path1320"
         inkscape:connector-curvature="0" />
    </g>
    <g
       id="g1322"
       transform="matrix(0.03527778,0,0,-0.03527778,-93.579248,81.521344)">
      <g
         clip-path="url(#clipPath1328)"
         id="g1324">
        <path
           inkscape:connector-curvature="0"
           id="path1340"
           style="fill:url(#radialGradient1338);fill-opacity:1;fill-rule:nonzero;stroke:none"
           d="m 2868.87,2054.47 c -0.39,-0.42 -0.76,-0.85 -1.16,-1.28 2.49,1.69 4.97,3.29 7.43,4.64 -2.09,-0.94 -4.18,-2.11 -6.27,-3.36" />
      </g>
    </g>
    <path
       inkscape:connector-curvature="0"
       id="path1342"
       style="fill:#ffffff;fill-opacity:1;fill-rule:nonzero;stroke:none;stroke-width:0.03527778"
       d="m 14.554192,6.7571533 c 0.27976,0.220133 0.26847,0.495652 0.007,0.794102 -0.32102,0.368653 -0.99412,0.794456 -1.9438,1.241425 -2.07539,0.978606 -3.8251696,1.3560777 -4.0565896,0.5969 -0.18063,-0.606072 0.83361,-1.983316 2.4817896,-2.641247 1.49295,-0.595841 3.01484,-0.381 3.5112,0.0088" />
    <path
       inkscape:connector-curvature="0"
       id="path1344"
       style="fill:#ffffff;fill-opacity:1;fill-rule:nonzero;stroke:none;stroke-width:0.03527778"
       d="m 8.5908424,10.440506 c 0.0896,0.335139 -0.066,0.824441 -0.35207,1.079147 -0.27235,0.242711 -0.54293,0.157339 -0.60572,-0.178506 -0.0565,-0.313972 0.0967,-0.75565 0.34254,-0.996244 0.25506,-0.252236 0.53058,-0.213431 0.61525,0.0956" />
    <path
       inkscape:connector-curvature="0"
       id="path1346"
       style="fill:#ffffff;fill-opacity:1;fill-rule:nonzero;stroke:none;stroke-width:0.03527778"
       d="m 22.875162,9.8146783 c 0.31151,0.2106077 0.49495,0.5023547 0.41275,0.6462887 -0.0914,0.161572 -0.44485,0.09737 -0.79163,-0.136878 -0.34361,-0.235656 -0.52211,-0.5316357 -0.39335,-0.6674557 0.1143,-0.119944 0.46285,-0.05327 0.77223,0.158045" />
    <path
       inkscape:connector-curvature="0"
       id="path1348"
       style="fill:#ffffff;fill-opacity:1;fill-rule:nonzero;stroke:none;stroke-width:0.03527778"
       d="m 22.045082,9.1228803 c 0.16545,0.0882 0.25823,0.19932 0.20814,0.246592 -0.0547,0.0508 -0.24201,0.01376 -0.41699,-0.08149 -0.17427,-0.09313 -0.26246,-0.203905 -0.19826,-0.248002 0.0603,-0.04092 0.24095,-0.0035 0.40711,0.0829" />
  </g>
</svg>
